M48
;Layer_Color=9474304
;FILE_FORMAT=4:4
METRIC,LZ
;TYPE=PLATED
T01F00S00C0.3000
T02F00S00C0.4000
T04F00S00C0.9000
T05F00S00C1.9500
T06F00S00C3.5000
%
T01
X00254935Y00086168
X00267462Y00167386
X00299974Y00138176
X0030607Y002286
X00336042Y00220218
X00351028Y00219964
X00366776
X00382016
X00395986Y00220218
X00409448Y00220472
X00409702Y00235204
Y00250698
Y00265938
Y00279654
X00383286Y00290576
X00372872Y00277876
X00372876Y00260038
X00335534Y00255778
X00335788Y0023749
X00260244Y0022987
X00235966Y00267208
X00241554Y0032385
X00268732Y00305308
X00278892
Y00295148
X00311658Y00333248
X00335534Y00337312
Y00324612
Y00351282
Y00366776
Y00383032
Y00398272
X0033528Y0041021
X0034798Y00410464
X00361696
X00377698
X00393954Y0041021
X00409448
X00409702Y00398272
Y00383032
Y00366776
Y00351282
X00284734Y0036195
X00256794Y00364236
X00394462Y00202438
X00216662Y00188722
X00211074Y00164338
X0022479Y00163322
X00224282Y00122428
X00229616Y00099314
X00188468Y00109982
X00180092Y00058928
X00180086Y00046482
X00168148Y0006096
X00137414Y00060706
X00125222Y00057658
X00124968Y00045466
X00153924Y00135128
X00163068Y00146812
X00171704Y00167894
X0017145Y00176022
X00183642
Y00168148
X00198935Y00211618
X00206756Y00225044
X00198882Y0024257
X0017018Y00233172
X00152908Y00264922
X00139446Y00264414
X00113538Y0025527
X0007874Y00258826
X00078232Y00301752
Y00319024
X00103886Y00313182
X00113792Y00334264
X00131826Y00319024
X00161036Y00311404
X00162306Y00291084
X00187198Y00269748
X0022098Y0027559
X00220218Y00309626
X00223266Y00326644
X00201168Y00330962
X00197866Y00371094
X00168656Y0037846
X00163068Y00359918
X00182626Y00412496
X0005991Y00359861
X00028448Y0032893
X00027178Y00305562
X00031496Y00260604
X0008509Y00221488
X0009652Y00216916
X00105918Y0022352
X00134112Y00197612
X0014732Y00194818
X00025908Y00458724
T02
X00342216Y00042114
X00392216
X00417216Y00092114
Y00192114
X00317216Y00392114
X00067216Y00092114
X00092216Y00042114
X00117216Y00492114
X00167216
X00217216
X00067216
X00267216
X00317216
X00292216Y00442114
X00392216
T04
X00361188Y0006731
X00386588
X0038354Y00104902
X0035814
X0033274
X00353822Y00136652
Y00162052
X00387096Y00160528
Y00135128
X00112776Y00153924
Y00179324
X00073406Y00171704
Y00146304
Y00120904
X00032766
Y00146304
Y00171704
Y00197104
X00073406
X00077216Y00381254
X00102616
X00128016
Y00426974
X00102616
X00077216
X00051816
Y00381254
X00153416Y00426974
Y00452374
X00128016
X00102616
X00077216
X00051816
T05
X00238652Y00403082
X00288652
Y00528082
X00238652
T06
X000381Y000381
Y00517398
X0039243
M30
