G04*
G04 #@! TF.GenerationSoftware,Altium Limited,Altium Designer,23.10.1 (27)*
G04*
G04 Layer_Physical_Order=1*
G04 Layer_Color=255*
%FSLAX44Y44*%
%MOMM*%
G71*
G04*
G04 #@! TF.SameCoordinates,273EA9BE-9362-4083-9DEA-C9DCB70363E1*
G04*
G04*
G04 #@! TF.FilePolarity,Positive*
G04*
G01*
G75*
%ADD10C,0.3000*%
%ADD11C,0.2500*%
%ADD17R,0.8000X1.0000*%
%ADD18R,0.5200X0.5600*%
%ADD19R,0.5600X0.5200*%
%ADD20R,1.2000X0.5000*%
%ADD21R,0.5000X1.2000*%
%ADD22R,2.2000X1.0500*%
%ADD23R,1.0000X1.0000*%
%ADD24R,0.6000X1.0000*%
G04:AMPARAMS|DCode=25|XSize=1.9mm|YSize=1.5mm|CornerRadius=0.375mm|HoleSize=0mm|Usage=FLASHONLY|Rotation=0.000|XOffset=0mm|YOffset=0mm|HoleType=Round|Shape=RoundedRectangle|*
%AMROUNDEDRECTD25*
21,1,1.9000,0.7500,0,0,0.0*
21,1,1.1500,1.5000,0,0,0.0*
1,1,0.7500,0.5750,-0.3750*
1,1,0.7500,-0.5750,-0.3750*
1,1,0.7500,-0.5750,0.3750*
1,1,0.7500,0.5750,0.3750*
%
%ADD25ROUNDEDRECTD25*%
%ADD26R,0.8000X0.6000*%
%ADD27R,0.6000X0.8000*%
%ADD28R,0.8000X0.8000*%
%ADD29R,0.2500X0.8000*%
%ADD30R,0.8000X0.2500*%
G04:AMPARAMS|DCode=31|XSize=1.5mm|YSize=0.6mm|CornerRadius=0.15mm|HoleSize=0mm|Usage=FLASHONLY|Rotation=0.000|XOffset=0mm|YOffset=0mm|HoleType=Round|Shape=RoundedRectangle|*
%AMROUNDEDRECTD31*
21,1,1.5000,0.3000,0,0,0.0*
21,1,1.2000,0.6000,0,0,0.0*
1,1,0.3000,0.6000,-0.1500*
1,1,0.3000,-0.6000,-0.1500*
1,1,0.3000,-0.6000,0.1500*
1,1,0.3000,0.6000,0.1500*
%
%ADD31ROUNDEDRECTD31*%
%ADD32R,1.0000X0.6000*%
G04:AMPARAMS|DCode=33|XSize=0.67mm|YSize=0.3mm|CornerRadius=0.075mm|HoleSize=0mm|Usage=FLASHONLY|Rotation=0.000|XOffset=0mm|YOffset=0mm|HoleType=Round|Shape=RoundedRectangle|*
%AMROUNDEDRECTD33*
21,1,0.6700,0.1500,0,0,0.0*
21,1,0.5200,0.3000,0,0,0.0*
1,1,0.1500,0.2600,-0.0750*
1,1,0.1500,-0.2600,-0.0750*
1,1,0.1500,-0.2600,0.0750*
1,1,0.1500,0.2600,0.0750*
%
%ADD33ROUNDEDRECTD33*%
%ADD34R,0.7600X1.4000*%
%ADD35R,0.8000X1.4000*%
%ADD36R,0.7000X1.4000*%
%ADD37R,0.7000X0.3000*%
%ADD38R,1.0000X1.7000*%
%ADD39R,0.8000X0.8000*%
G04:AMPARAMS|DCode=40|XSize=1.15mm|YSize=0.6mm|CornerRadius=0.15mm|HoleSize=0mm|Usage=FLASHONLY|Rotation=180.000|XOffset=0mm|YOffset=0mm|HoleType=Round|Shape=RoundedRectangle|*
%AMROUNDEDRECTD40*
21,1,1.1500,0.3000,0,0,180.0*
21,1,0.8500,0.6000,0,0,180.0*
1,1,0.3000,-0.4250,0.1500*
1,1,0.3000,0.4250,0.1500*
1,1,0.3000,0.4250,-0.1500*
1,1,0.3000,-0.4250,-0.1500*
%
%ADD40ROUNDEDRECTD40*%
%ADD41R,0.7874X9.3218*%
%ADD42R,8.2042X0.7874*%
%ADD43R,0.7874X6.7310*%
%ADD44R,0.7874X5.6134*%
%ADD74C,1.3000*%
%ADD75C,0.5000*%
%ADD76C,1.1000*%
%ADD77C,0.8000*%
%ADD78C,0.6000*%
%ADD79C,0.3500*%
%ADD80C,2.5000*%
%ADD81C,1.3400*%
%ADD82C,5.0000*%
%ADD83O,1.0300X1.6300*%
%ADD84C,0.6500*%
%ADD85C,0.7000*%
G36*
X426197Y4333D02*
X4333Y4333D01*
X4333Y551165D01*
X426197D01*
X426197Y4333D01*
D02*
G37*
%LPC*%
G36*
X290179Y543582D02*
X287125D01*
X284131Y542986D01*
X281310Y541818D01*
X278771Y540122D01*
X276612Y537963D01*
X274916Y535424D01*
X273748Y532603D01*
X273152Y529609D01*
Y526555D01*
X273748Y523561D01*
X274916Y520740D01*
X276612Y518201D01*
X278771Y516042D01*
X281310Y514346D01*
X284131Y513178D01*
X287125Y512582D01*
X290179D01*
X293173Y513178D01*
X295994Y514346D01*
X298533Y516042D01*
X300692Y518201D01*
X302388Y520740D01*
X303556Y523561D01*
X304152Y526555D01*
Y529609D01*
X303556Y532603D01*
X302388Y535424D01*
X300692Y537963D01*
X298533Y540122D01*
X295994Y541818D01*
X293173Y542986D01*
X290179Y543582D01*
D02*
G37*
G36*
X240179D02*
X237125D01*
X234131Y542986D01*
X231310Y541818D01*
X228771Y540122D01*
X226612Y537963D01*
X224916Y535424D01*
X223748Y532603D01*
X223152Y529609D01*
Y526555D01*
X223748Y523561D01*
X224916Y520740D01*
X226612Y518201D01*
X228771Y516042D01*
X231310Y514346D01*
X234131Y513178D01*
X237125Y512582D01*
X240179D01*
X243173Y513178D01*
X245994Y514346D01*
X248533Y516042D01*
X250692Y518201D01*
X252388Y520740D01*
X253556Y523561D01*
X254152Y526555D01*
Y529609D01*
X253556Y532603D01*
X252388Y535424D01*
X250692Y537963D01*
X248533Y540122D01*
X245994Y541818D01*
X243173Y542986D01*
X240179Y543582D01*
D02*
G37*
G36*
X394634Y545398D02*
X390226D01*
X385873Y544709D01*
X381682Y543347D01*
X377755Y541346D01*
X374189Y538755D01*
X371073Y535639D01*
X368482Y532073D01*
X366481Y528146D01*
X365120Y523955D01*
X364430Y519602D01*
Y515194D01*
X365120Y510841D01*
X366481Y506650D01*
X368482Y502723D01*
X371073Y499157D01*
X374189Y496041D01*
X377755Y493450D01*
X381682Y491449D01*
X385873Y490088D01*
X390226Y489398D01*
X394634D01*
X398987Y490088D01*
X403178Y491449D01*
X407105Y493450D01*
X410671Y496041D01*
X413787Y499157D01*
X416378Y502723D01*
X418379Y506650D01*
X419740Y510841D01*
X420430Y515194D01*
Y519602D01*
X419740Y523955D01*
X418379Y528146D01*
X416378Y532073D01*
X413787Y535639D01*
X410671Y538755D01*
X407105Y541346D01*
X403178Y543347D01*
X398987Y544709D01*
X394634Y545398D01*
D02*
G37*
G36*
X40304D02*
X35896D01*
X31543Y544709D01*
X27352Y543347D01*
X23425Y541346D01*
X19859Y538755D01*
X16743Y535639D01*
X14152Y532073D01*
X12151Y528146D01*
X10790Y523955D01*
X10100Y519602D01*
Y515194D01*
X10790Y510841D01*
X12151Y506650D01*
X14152Y502723D01*
X16743Y499157D01*
X19859Y496041D01*
X23425Y493450D01*
X27352Y491449D01*
X31543Y490088D01*
X35896Y489398D01*
X40304D01*
X44657Y490088D01*
X48848Y491449D01*
X52775Y493450D01*
X56341Y496041D01*
X59457Y499157D01*
X62048Y502723D01*
X64049Y506650D01*
X65410Y510841D01*
X66100Y515194D01*
Y519602D01*
X65410Y523955D01*
X64049Y528146D01*
X62048Y532073D01*
X59457Y535639D01*
X56341Y538755D01*
X52775Y541346D01*
X48848Y543347D01*
X44657Y544709D01*
X40304Y545398D01*
D02*
G37*
G36*
X129286Y461600D02*
Y453644D01*
X137242D01*
X136626Y455941D01*
X135410Y458047D01*
X133689Y459768D01*
X131582Y460984D01*
X129286Y461600D01*
D02*
G37*
G36*
X103886D02*
Y453644D01*
X111842D01*
X111226Y455941D01*
X110010Y458047D01*
X108289Y459768D01*
X106182Y460984D01*
X103886Y461600D01*
D02*
G37*
G36*
X53086D02*
Y453644D01*
X61042D01*
X60426Y455941D01*
X59210Y458047D01*
X57490Y459768D01*
X55382Y460984D01*
X53086Y461600D01*
D02*
G37*
G36*
X126746D02*
X124450Y460984D01*
X122343Y459768D01*
X120622Y458047D01*
X119406Y455941D01*
X118790Y453644D01*
X126746D01*
Y461600D01*
D02*
G37*
G36*
X101346D02*
X99050Y460984D01*
X96943Y459768D01*
X95222Y458047D01*
X94006Y455941D01*
X93390Y453644D01*
X101346D01*
Y461600D01*
D02*
G37*
G36*
X50546D02*
X48250Y460984D01*
X46143Y459768D01*
X44422Y458047D01*
X43206Y455941D01*
X42590Y453644D01*
X50546D01*
Y461600D01*
D02*
G37*
G36*
X358584Y453746D02*
X353314D01*
Y449476D01*
X358584D01*
Y453746D01*
D02*
G37*
G36*
X350774D02*
X345504D01*
Y449476D01*
X350774D01*
Y453746D01*
D02*
G37*
G36*
X32194Y451206D02*
X28933D01*
X29623Y448635D01*
X26924D01*
Y446936D01*
X32194D01*
Y451206D01*
D02*
G37*
G36*
X22505D02*
X19114D01*
Y446936D01*
X24384D01*
Y448635D01*
X21685D01*
X22505Y451206D01*
D02*
G37*
G36*
X137242Y451104D02*
X129286D01*
Y443148D01*
X131582Y443764D01*
X133689Y444980D01*
X135410Y446701D01*
X136626Y448807D01*
X137242Y451104D01*
D02*
G37*
G36*
X111842D02*
X103886D01*
Y443148D01*
X106182Y443764D01*
X108289Y444980D01*
X110010Y446701D01*
X111226Y448807D01*
X111842Y451104D01*
D02*
G37*
G36*
X61042D02*
X53086D01*
Y443148D01*
X55382Y443764D01*
X57490Y444980D01*
X59210Y446701D01*
X60426Y448807D01*
X61042Y451104D01*
D02*
G37*
G36*
X50546D02*
X42590D01*
X43206Y448807D01*
X44422Y446701D01*
X46143Y444980D01*
X48250Y443764D01*
X50546Y443148D01*
Y451104D01*
D02*
G37*
G36*
X126746D02*
X118790D01*
X119406Y448807D01*
X120622Y446701D01*
X122343Y444980D01*
X124450Y443764D01*
X126746Y443148D01*
Y451104D01*
D02*
G37*
G36*
X101346D02*
X93390D01*
X94006Y448807D01*
X95222Y446701D01*
X96943Y444980D01*
X99050Y443764D01*
X101346Y443148D01*
Y451104D01*
D02*
G37*
G36*
X154693Y462074D02*
X152139D01*
X149672Y461413D01*
X147460Y460136D01*
X145654Y458330D01*
X144377Y456118D01*
X143716Y453651D01*
Y451097D01*
X144377Y448630D01*
X145654Y446418D01*
X147460Y444612D01*
X149672Y443335D01*
X152139Y442674D01*
X154693D01*
X157160Y443335D01*
X159372Y444612D01*
X161178Y446418D01*
X162455Y448630D01*
X163116Y451097D01*
Y453651D01*
X162455Y456118D01*
X161178Y458330D01*
X159372Y460136D01*
X157160Y461413D01*
X154693Y462074D01*
D02*
G37*
G36*
X78493D02*
X75939D01*
X73472Y461413D01*
X71260Y460136D01*
X69454Y458330D01*
X68177Y456118D01*
X67516Y453651D01*
Y451097D01*
X68177Y448630D01*
X69454Y446418D01*
X71260Y444612D01*
X73472Y443335D01*
X75939Y442674D01*
X78493D01*
X80960Y443335D01*
X83172Y444612D01*
X84978Y446418D01*
X86255Y448630D01*
X86916Y451097D01*
Y453651D01*
X86255Y456118D01*
X84978Y458330D01*
X83172Y460136D01*
X80960Y461413D01*
X78493Y462074D01*
D02*
G37*
G36*
X358584Y446936D02*
X352044D01*
X345504D01*
Y443555D01*
X345044Y441206D01*
X342630Y439794D01*
X320776D01*
X319020Y439445D01*
X317532Y438450D01*
X300104Y421023D01*
X288183Y418582D01*
X287125D01*
X284131Y417986D01*
X281310Y416818D01*
X278771Y415122D01*
X276612Y412963D01*
X274916Y410424D01*
X273748Y407603D01*
X273152Y404609D01*
Y401555D01*
X273748Y398561D01*
X274916Y395740D01*
X276612Y393201D01*
X278771Y391042D01*
X281310Y389346D01*
X284131Y388178D01*
X287125Y387582D01*
X290179D01*
X293173Y388178D01*
X295994Y389346D01*
X298533Y391042D01*
X300692Y393201D01*
X302388Y395740D01*
X303556Y398561D01*
X304152Y401555D01*
Y402613D01*
X306593Y414534D01*
X322677Y430618D01*
X344426D01*
X345044Y430315D01*
Y429206D01*
X347799D01*
X347883Y429184D01*
X347979Y429197D01*
X348074Y429178D01*
X348217Y429206D01*
X359044D01*
Y440317D01*
X359044Y441206D01*
X358584Y443555D01*
Y443746D01*
Y446936D01*
D02*
G37*
G36*
X103893Y436674D02*
X101339D01*
X98872Y436013D01*
X96660Y434736D01*
X94854Y432930D01*
X93577Y430718D01*
X92916Y428251D01*
Y425697D01*
X93577Y423230D01*
X94854Y421018D01*
X96660Y419212D01*
X98872Y417935D01*
X101339Y417274D01*
X103893D01*
X106360Y417935D01*
X108572Y419212D01*
X110378Y421018D01*
X111655Y423230D01*
X112316Y425697D01*
Y428251D01*
X111655Y430718D01*
X110378Y432930D01*
X108572Y434736D01*
X106360Y436013D01*
X103893Y436674D01*
D02*
G37*
G36*
X78493D02*
X75939D01*
X73472Y436013D01*
X71260Y434736D01*
X69454Y432930D01*
X68177Y430718D01*
X67516Y428251D01*
Y425697D01*
X68177Y423230D01*
X69454Y421018D01*
X71260Y419212D01*
X73472Y417935D01*
X75939Y417274D01*
X78493D01*
X80960Y417935D01*
X83172Y419212D01*
X84978Y421018D01*
X86255Y423230D01*
X86916Y425697D01*
Y428251D01*
X86255Y430718D01*
X84978Y432930D01*
X83172Y434736D01*
X80960Y436013D01*
X78493Y436674D01*
D02*
G37*
G36*
X240179Y418582D02*
X237125D01*
X234131Y417986D01*
X231310Y416818D01*
X228771Y415122D01*
X226612Y412963D01*
X224916Y410424D01*
X223748Y407603D01*
X223152Y404609D01*
Y401555D01*
X223748Y398561D01*
X224916Y395740D01*
X226612Y393201D01*
X228771Y391042D01*
X231310Y389346D01*
X234131Y388178D01*
X237125Y387582D01*
X240179D01*
X243173Y388178D01*
X245994Y389346D01*
X248533Y391042D01*
X250692Y393201D01*
X252388Y395740D01*
X253556Y398561D01*
X254152Y401555D01*
Y404609D01*
X253556Y407603D01*
X252388Y410424D01*
X250692Y412963D01*
X248533Y415122D01*
X245994Y416818D01*
X243173Y417986D01*
X240179Y418582D01*
D02*
G37*
G36*
X129286Y390480D02*
Y382524D01*
X137242D01*
X136626Y384821D01*
X135410Y386927D01*
X133689Y388648D01*
X131582Y389864D01*
X129286Y390480D01*
D02*
G37*
G36*
X32194Y444396D02*
X25654D01*
X19114D01*
Y441015D01*
X18654Y438666D01*
X18654Y437776D01*
Y426666D01*
X29481D01*
X29623Y426638D01*
X29719Y426657D01*
X29815Y426644D01*
X29899Y426666D01*
X32654D01*
Y427775D01*
X33272Y428078D01*
X40668D01*
X42484Y424324D01*
X42777Y423230D01*
X44054Y421018D01*
X45860Y419212D01*
X48072Y417935D01*
X50539Y417274D01*
X51249D01*
X56553Y415749D01*
X76512Y395790D01*
X78000Y394795D01*
X79756Y394446D01*
X100836D01*
X101536Y393494D01*
X101485Y392845D01*
X100429Y390710D01*
X98872Y390293D01*
X96660Y389016D01*
X94854Y387210D01*
X93577Y384998D01*
X92916Y382531D01*
Y379977D01*
X93577Y377510D01*
X94757Y375466D01*
X92125Y372834D01*
X88441Y376517D01*
X86916Y381821D01*
Y382531D01*
X86255Y384998D01*
X84978Y387210D01*
X83172Y389016D01*
X80960Y390293D01*
X78493Y390954D01*
X75939D01*
X73472Y390293D01*
X71260Y389016D01*
X69454Y387210D01*
X68177Y384998D01*
X67516Y382531D01*
Y379977D01*
X68177Y377510D01*
X69454Y375298D01*
X71260Y373492D01*
X73472Y372215D01*
X75939Y371554D01*
X76649D01*
X81952Y370029D01*
X84566Y367416D01*
Y330508D01*
X82026Y329737D01*
X81910Y329910D01*
X80959Y330861D01*
X78166Y335301D01*
Y337724D01*
X62166D01*
Y325724D01*
X68589D01*
X72337Y323366D01*
Y321125D01*
X71982Y320267D01*
Y317781D01*
X72934Y315484D01*
X74692Y313725D01*
X76989Y312774D01*
X79475D01*
X81772Y313725D01*
X82026Y313979D01*
X84566Y312927D01*
Y307849D01*
X82026Y306797D01*
X81772Y307050D01*
X79475Y308002D01*
X76989D01*
X74692Y307050D01*
X72934Y305292D01*
X71982Y302995D01*
Y300509D01*
X72337Y299651D01*
Y296902D01*
X68589Y294544D01*
X62166D01*
Y282544D01*
X78166D01*
Y284967D01*
X80959Y289407D01*
X81910Y290358D01*
X82026Y290531D01*
X84566Y289760D01*
Y285496D01*
X84915Y283740D01*
X85910Y282252D01*
X89972Y278190D01*
X91460Y277195D01*
X93216Y276846D01*
X102427D01*
X103479Y274306D01*
X91752Y262578D01*
X90757Y261090D01*
X90408Y259334D01*
Y251670D01*
X90260Y251254D01*
X89396D01*
Y248366D01*
X89368Y248223D01*
X89383Y248147D01*
X89372Y248070D01*
X89396Y247973D01*
Y239654D01*
X89856D01*
Y238924D01*
X91469D01*
X92427Y240424D01*
X93818Y238924D01*
X100136D01*
Y239654D01*
X100596D01*
Y247973D01*
X100620Y248070D01*
X100609Y248147D01*
X100624Y248223D01*
X100596Y248366D01*
Y251254D01*
X99733D01*
X99584Y251670D01*
Y257433D01*
X105789Y263639D01*
X108136Y262667D01*
Y260394D01*
X111025D01*
X110707Y262964D01*
X115406Y262982D01*
Y265434D01*
X116676D01*
Y266704D01*
X125216D01*
Y267934D01*
X125676D01*
Y275934D01*
Y284860D01*
X126048Y285322D01*
X128216Y286658D01*
X129032Y286496D01*
X157107D01*
X158478Y286073D01*
X158766Y285786D01*
X161063Y284834D01*
X163549D01*
X165846Y285786D01*
X167605Y287544D01*
X168556Y289841D01*
Y292327D01*
X167605Y294624D01*
X165846Y296383D01*
X163549Y297334D01*
X161063D01*
X158766Y296383D01*
X158478Y296095D01*
X157107Y295672D01*
X130933D01*
X128299Y298306D01*
X129351Y300846D01*
X155066D01*
X156822Y301195D01*
X158310Y302190D01*
X160604Y304483D01*
X161873Y305154D01*
X162279D01*
X164576Y306105D01*
X166334Y307864D01*
X167286Y310161D01*
Y312647D01*
X166334Y314944D01*
X164576Y316702D01*
X162279Y317654D01*
X159793D01*
X157496Y316702D01*
X155737Y314944D01*
X154786Y312647D01*
Y312241D01*
X154115Y310972D01*
X153166Y310022D01*
X127840D01*
X125734Y312437D01*
X125754Y312955D01*
X128097Y313914D01*
X128286Y313725D01*
X130583Y312774D01*
X133069D01*
X135366Y313725D01*
X137125Y315484D01*
X138076Y317781D01*
Y320267D01*
X137125Y322564D01*
X135366Y324323D01*
X135194Y324394D01*
X135699Y326934D01*
X174461D01*
X175433Y324587D01*
X174851Y324005D01*
X173635Y322186D01*
X173208Y320040D01*
Y278951D01*
X161472Y267215D01*
X158476Y267811D01*
X158207Y268462D01*
X156448Y270221D01*
X154151Y271172D01*
X151665D01*
X149368Y270221D01*
X147610Y268462D01*
X146658Y266165D01*
Y263679D01*
X147348Y262014D01*
X146486Y260109D01*
X145975Y259531D01*
X149646Y256903D01*
X144737Y249832D01*
X141171Y256903D01*
X143741Y259474D01*
X140446D01*
Y250934D01*
X137906D01*
Y259474D01*
X136676D01*
Y259934D01*
X127894Y259934D01*
X127700Y259934D01*
X127534Y259940D01*
X125601Y260319D01*
X125222Y262252D01*
X125216Y262418D01*
X125216Y262612D01*
Y264164D01*
X117946D01*
Y262992D01*
X118825Y262995D01*
X117946Y261226D01*
Y260394D01*
X122998D01*
X123192Y260394D01*
X123358Y260388D01*
X125291Y260009D01*
X125670Y258076D01*
X125676Y257910D01*
X125676Y257716D01*
Y251476D01*
X125568Y250934D01*
Y249757D01*
X124913Y249102D01*
X123697Y247282D01*
X123271Y245136D01*
Y232346D01*
X123240Y232027D01*
X121649Y230513D01*
X120529Y230294D01*
X117148D01*
Y223754D01*
X115878D01*
Y222484D01*
X112909D01*
Y219785D01*
X110338Y220480D01*
Y217214D01*
X110406D01*
Y214542D01*
X112977Y215298D01*
Y212598D01*
X115946D01*
Y211328D01*
X117216D01*
Y204788D01*
X120597D01*
X122946Y204328D01*
X123835Y204328D01*
X128233D01*
X128885Y203211D01*
Y201224D01*
X128813Y201152D01*
X127862Y198855D01*
Y196369D01*
X128813Y194072D01*
X130572Y192313D01*
X132869Y191362D01*
X135355D01*
X137652Y192313D01*
X139410Y194072D01*
X140362Y196369D01*
Y198855D01*
X140101Y199486D01*
Y202374D01*
X142073Y204582D01*
X145150D01*
X146040Y204582D01*
Y204582D01*
X147500Y205042D01*
X147500Y205042D01*
X150312D01*
X150070Y207612D01*
X151770D01*
Y211582D01*
X153040D01*
Y212852D01*
X158580D01*
Y218122D01*
X158213D01*
X155780Y218380D01*
Y222250D01*
X150440D01*
Y224790D01*
X155780D01*
Y228660D01*
X150789D01*
X148440Y229120D01*
X148041Y230104D01*
X149734Y232644D01*
X157044D01*
X159190Y233071D01*
X161009Y234287D01*
X161568Y234846D01*
X163930Y233615D01*
Y231929D01*
X164881Y229632D01*
X166640Y227873D01*
X168937Y226922D01*
X171423D01*
X173720Y227873D01*
X174004Y228157D01*
X176115Y227949D01*
X192015Y212050D01*
X192685Y210781D01*
Y210374D01*
X193637Y208077D01*
X195395Y206319D01*
X195828Y206140D01*
X196048Y205102D01*
X195895Y203363D01*
X195554Y203135D01*
X193148Y202329D01*
X193133Y202320D01*
X192363Y202167D01*
X190874Y201173D01*
X188736Y199034D01*
X187554Y199217D01*
X186086Y199977D01*
X185846Y201184D01*
X184852Y202673D01*
X183363Y203667D01*
X181607Y204017D01*
X173107D01*
X171352Y203667D01*
X169863Y202673D01*
X168868Y201184D01*
X168519Y199428D01*
Y196428D01*
X168868Y194673D01*
X169863Y193184D01*
X171352Y192190D01*
X173107Y191840D01*
X181607D01*
X182582Y192034D01*
X184639Y190827D01*
X185123Y190310D01*
Y186547D01*
X184639Y186030D01*
X182582Y184823D01*
X181607Y185016D01*
X173107D01*
X171352Y184667D01*
X169863Y183673D01*
X168868Y182184D01*
X168805Y181864D01*
X168392Y181693D01*
X166982Y180611D01*
X166262Y179673D01*
X166152Y179562D01*
X166121Y179489D01*
X165900Y179201D01*
X165220Y177559D01*
X164988Y175797D01*
Y168297D01*
X165220Y166535D01*
X165900Y164893D01*
X166982Y163483D01*
X168392Y162401D01*
X170034Y161721D01*
X170389Y161674D01*
X170461Y161644D01*
X170616D01*
X171796Y161489D01*
X171946D01*
Y157104D01*
X172406D01*
Y156374D01*
X174019D01*
X174977Y157873D01*
X176368Y156374D01*
X182686D01*
Y157104D01*
X183146D01*
Y161489D01*
X183296D01*
X185058Y161721D01*
X186700Y162401D01*
X188110Y163483D01*
X189192Y164893D01*
X189872Y166535D01*
X190104Y168297D01*
Y173633D01*
X192644Y174991D01*
X192658Y174981D01*
X193487Y174816D01*
X193538Y174790D01*
X194688Y174445D01*
X194863Y174184D01*
X196352Y173190D01*
X198107Y172840D01*
X202210D01*
X202357Y172811D01*
X208560D01*
X209065Y170271D01*
X207534Y169636D01*
X205776Y167878D01*
X204824Y165581D01*
Y163095D01*
X205212Y162157D01*
Y161144D01*
X204406Y158804D01*
X203566Y158804D01*
X201217Y158344D01*
X196596D01*
Y152804D01*
X195326D01*
Y151534D01*
X188786D01*
Y148153D01*
X188326Y145804D01*
X188326Y144915D01*
Y133804D01*
X199153D01*
X199296Y133776D01*
X199391Y133795D01*
X199487Y133782D01*
X199571Y133804D01*
X202326D01*
Y133804D01*
X203566D01*
X203566Y133804D01*
X206321D01*
X206405Y133782D01*
X206501Y133795D01*
X206597Y133776D01*
X206739Y133804D01*
X214405D01*
X214551Y133776D01*
X214593Y133784D01*
X214634Y133777D01*
X214749Y133804D01*
X217566D01*
Y134848D01*
X218130Y135104D01*
X225435D01*
X226487Y132564D01*
X222292Y128369D01*
X220742Y127726D01*
X218983Y125968D01*
X218032Y123671D01*
Y121185D01*
X218983Y118888D01*
X220742Y117129D01*
X223039Y116178D01*
X225525D01*
X227822Y117129D01*
X229580Y118888D01*
X230223Y120438D01*
X234468Y124683D01*
X236808Y123432D01*
X236558Y122174D01*
Y104922D01*
X232410D01*
X230859Y105564D01*
X228373D01*
X226076Y104613D01*
X224317Y102854D01*
X223366Y100557D01*
Y98071D01*
X224317Y95774D01*
X225055Y95036D01*
X224942Y92004D01*
X224891Y91913D01*
X224052Y91074D01*
X220985Y89518D01*
X217585D01*
Y77918D01*
X218045D01*
Y77188D01*
X223185D01*
Y75918D01*
X224455D01*
Y70578D01*
X228325D01*
X228330Y68072D01*
X228679Y66316D01*
X229674Y64828D01*
X236532Y57970D01*
X238020Y56975D01*
X239776Y56626D01*
X242360D01*
X242776Y56477D01*
Y55614D01*
X245664D01*
X245807Y55586D01*
X245883Y55601D01*
X245960Y55590D01*
X246057Y55614D01*
X254376D01*
Y56074D01*
X255106D01*
Y61214D01*
Y66354D01*
X254376D01*
Y66814D01*
X246057D01*
X245960Y66838D01*
X245883Y66827D01*
X245807Y66842D01*
X245664Y66814D01*
X242776D01*
Y66814D01*
X240361Y67117D01*
X237506Y69973D01*
Y72457D01*
X238395Y74628D01*
X243165D01*
Y78668D01*
X245705D01*
Y74628D01*
X250475D01*
Y75128D01*
X253665D01*
Y86168D01*
Y97208D01*
X250935D01*
Y98168D01*
X249060D01*
X247774Y100758D01*
Y101285D01*
X249060Y103874D01*
X250566D01*
Y104334D01*
X251296D01*
Y109474D01*
X252566D01*
Y110744D01*
X257906D01*
Y114614D01*
X257906D01*
Y117034D01*
X257906D01*
Y120904D01*
X252566D01*
Y123444D01*
X257906D01*
Y127314D01*
X257906D01*
Y129226D01*
X257906D01*
Y133096D01*
X252566D01*
Y135636D01*
X258339D01*
X260253Y136429D01*
X264472Y132210D01*
X265960Y131215D01*
X267716Y130866D01*
X268609D01*
X269192Y130595D01*
Y129528D01*
X271987D01*
X272092Y129502D01*
X272157Y129513D01*
X272222Y129500D01*
X272365Y129528D01*
X285419D01*
X285562Y129500D01*
X285649Y129517D01*
X285738Y129505D01*
X285827Y129528D01*
X288592D01*
Y130626D01*
X289201Y130921D01*
X296360D01*
X298116Y131270D01*
X299097Y131926D01*
X301217D01*
X303514Y132878D01*
X305273Y134636D01*
X306224Y136933D01*
Y139419D01*
X306043Y139856D01*
X308196Y141295D01*
X332349Y117142D01*
X331614Y115035D01*
X331332Y114567D01*
X328996Y113941D01*
X327309Y112967D01*
X323708Y112574D01*
X301256D01*
Y113914D01*
X300796D01*
Y114644D01*
X295656D01*
Y115914D01*
X294386D01*
Y121254D01*
X290516D01*
Y121254D01*
X288096D01*
Y121254D01*
X284226D01*
Y115914D01*
X282956D01*
Y114644D01*
X277816D01*
Y113914D01*
X277356D01*
Y112574D01*
X275819D01*
X273992Y112334D01*
X272289Y111629D01*
X270827Y110506D01*
X261643Y101323D01*
X260521Y99861D01*
X259820Y98168D01*
X258935D01*
Y97208D01*
X256205D01*
Y86168D01*
Y75128D01*
X258935D01*
Y74168D01*
X263883D01*
X267010Y72605D01*
X271215Y68400D01*
X271296Y68279D01*
X275582Y63993D01*
X277145Y60867D01*
X277145Y54918D01*
Y53787D01*
X274734Y51507D01*
X273486D01*
X271731Y51157D01*
X270242Y50163D01*
X268102Y48022D01*
X262592D01*
X262176Y48170D01*
Y49034D01*
X259288D01*
X259146Y49062D01*
X259069Y49047D01*
X258992Y49058D01*
X258895Y49034D01*
X250576D01*
Y48574D01*
X249846D01*
Y43434D01*
Y38294D01*
X250576D01*
Y37834D01*
X258895D01*
X258992Y37810D01*
X259069Y37821D01*
X259146Y37806D01*
X259288Y37834D01*
X262176D01*
Y38698D01*
X262592Y38846D01*
X270002D01*
X271758Y39195D01*
X273246Y40190D01*
X274605Y41549D01*
X277145Y40497D01*
Y39918D01*
X291145D01*
Y52378D01*
X291145Y53918D01*
X291145Y56458D01*
Y68918D01*
X285197D01*
X282071Y70482D01*
X277865Y74687D01*
X277785Y74808D01*
X275859Y76734D01*
X276831Y79080D01*
X287557D01*
X301405Y65232D01*
Y63770D01*
X301377Y63628D01*
X301405Y63486D01*
Y63444D01*
X301393Y63314D01*
X301405Y63275D01*
Y55058D01*
X301865D01*
Y54328D01*
X307005D01*
X312145D01*
Y55058D01*
X312605D01*
Y66658D01*
X311483D01*
X311131Y67434D01*
X310993Y68127D01*
X309999Y69616D01*
X297881Y81734D01*
X298853Y84080D01*
X304909D01*
X320615Y68374D01*
X320536Y65834D01*
X320536D01*
Y62946D01*
X320508Y62804D01*
X320523Y62727D01*
X320512Y62650D01*
X320536Y62553D01*
Y54234D01*
X320996D01*
Y53504D01*
X326136D01*
X331276D01*
Y54234D01*
X331736D01*
Y62553D01*
X331760Y62650D01*
X331749Y62727D01*
X331764Y62804D01*
X331736Y62946D01*
Y65834D01*
X330872D01*
X330724Y66250D01*
Y69342D01*
X330375Y71098D01*
X329380Y72586D01*
X310054Y91913D01*
X308565Y92907D01*
X306810Y93257D01*
X276865D01*
X275893Y95603D01*
X278744Y98454D01*
X281956D01*
X282456Y98519D01*
X282956Y98454D01*
X322670D01*
X325278Y97975D01*
X325680Y95290D01*
Y89662D01*
X325920Y87835D01*
X326626Y86132D01*
X327748Y84670D01*
X349066Y63351D01*
X350529Y62229D01*
X352231Y61523D01*
X353419Y61367D01*
X353426Y61354D01*
X355232Y59548D01*
X357444Y58271D01*
X359911Y57610D01*
X362465D01*
X364932Y58271D01*
X367144Y59548D01*
X368950Y61354D01*
X370227Y63566D01*
X370888Y66033D01*
Y68587D01*
X370227Y71054D01*
X368950Y73266D01*
X367144Y75072D01*
X364932Y76349D01*
X362465Y77010D01*
X359911D01*
X357444Y76349D01*
X356553Y75834D01*
X339800Y92586D01*
Y95290D01*
X340320Y98764D01*
X340502Y98946D01*
X341779Y101158D01*
X342405Y103494D01*
X342873Y103776D01*
X344980Y104511D01*
X350150Y99341D01*
X350378Y98946D01*
X352184Y97140D01*
X354396Y95863D01*
X356863Y95202D01*
X359417D01*
X361884Y95863D01*
X364096Y97140D01*
X365902Y98946D01*
X367179Y101158D01*
X367840Y103625D01*
Y106179D01*
X367179Y108646D01*
X365902Y110858D01*
X364096Y112664D01*
X363701Y112892D01*
X351520Y125073D01*
X352417Y127006D01*
X352552Y127160D01*
Y135382D01*
X344330D01*
X344175Y135247D01*
X342243Y134349D01*
X320889Y155704D01*
X321861Y158051D01*
X344932D01*
X346060Y156096D01*
X347866Y154290D01*
X350078Y153013D01*
X352545Y152352D01*
X355099D01*
X357566Y153013D01*
X359778Y154290D01*
X361584Y156096D01*
X362861Y158308D01*
X363522Y160775D01*
Y163329D01*
X362861Y165796D01*
X361584Y168008D01*
X359778Y169814D01*
X357566Y171091D01*
X355779Y171570D01*
X354663Y172686D01*
X352887Y174049D01*
X350820Y174905D01*
X348601Y175197D01*
X342465D01*
X341493Y177544D01*
X359151Y195202D01*
X360086D01*
X360545Y195262D01*
X367086D01*
Y201803D01*
X367146Y202262D01*
X367086Y202721D01*
Y211262D01*
X355086D01*
Y209172D01*
X354399Y209082D01*
X352696Y208376D01*
X351233Y207254D01*
X329094Y185114D01*
X306070D01*
X304243Y184874D01*
X302540Y184168D01*
X302505Y184142D01*
X300070D01*
X299976Y184123D01*
X297831Y186047D01*
X297778Y186257D01*
Y189094D01*
X297429Y190850D01*
X296434Y192338D01*
X294946Y193333D01*
X293190Y193682D01*
X287338D01*
X287190Y193712D01*
X282690D01*
X282542Y193682D01*
X281190D01*
X279434Y193333D01*
X277946Y192338D01*
X277501Y191672D01*
X277486Y191660D01*
X273711Y187266D01*
X271632Y185187D01*
X270002D01*
X268671Y184923D01*
X214487D01*
X213868Y185046D01*
X212942D01*
X211838Y185984D01*
X207181Y185544D01*
Y187158D01*
X202357D01*
Y189698D01*
X207181D01*
Y191313D01*
X210480Y191166D01*
X210413Y191505D01*
X209852Y193184D01*
X210846Y194673D01*
X211196Y196428D01*
Y199428D01*
X210846Y201184D01*
X209852Y202673D01*
X208363Y203667D01*
X206607Y204017D01*
X203492D01*
X202860Y205449D01*
X202713Y206557D01*
X204234Y208077D01*
X205185Y210374D01*
Y212861D01*
X204234Y215158D01*
X202476Y216916D01*
X200178Y217868D01*
X199772D01*
X198503Y218538D01*
X183947Y233094D01*
Y241682D01*
X184013Y241934D01*
X192632D01*
Y241327D01*
X193584Y239030D01*
X195342Y237271D01*
X197639Y236320D01*
X200125D01*
X202422Y237271D01*
X204181Y239030D01*
X205132Y241327D01*
Y243813D01*
X204181Y246110D01*
X202610Y247681D01*
X202451Y248477D01*
X201457Y249966D01*
X197244Y254178D01*
X195756Y255173D01*
X194000Y255522D01*
X192913Y257394D01*
X193752Y259934D01*
X195216Y259934D01*
X202233D01*
X202676Y259846D01*
X208010D01*
Y232787D01*
X207188Y231965D01*
X205919Y231294D01*
X205513D01*
X203216Y230343D01*
X201458Y228584D01*
X200506Y226287D01*
Y223801D01*
X201458Y221504D01*
X203216Y219746D01*
X205513Y218794D01*
X207999D01*
X210296Y219746D01*
X212055Y221504D01*
X213006Y223801D01*
Y224207D01*
X213677Y225476D01*
X215842Y227642D01*
X216837Y229130D01*
X217186Y230886D01*
Y262636D01*
X216837Y264392D01*
X215842Y265880D01*
X214044Y267678D01*
X212556Y268673D01*
X211645Y268854D01*
X210676Y269339D01*
Y270934D01*
X210216D01*
Y272164D01*
X201676D01*
X193136D01*
Y270934D01*
X192676D01*
Y262474D01*
X192676Y259934D01*
X190136Y259934D01*
X173371D01*
X172399Y262281D01*
X182781Y272663D01*
X183997Y274482D01*
X184424Y276628D01*
Y317717D01*
X190596Y323890D01*
X192745Y323237D01*
X193136Y322945D01*
Y322704D01*
X200406D01*
Y323873D01*
X196676D01*
X197969Y326474D01*
X195026D01*
X194473Y326582D01*
X192866Y328312D01*
X192784Y328868D01*
Y335934D01*
X192676Y336476D01*
Y344934D01*
X192676D01*
X192720Y347456D01*
X205854D01*
X206480Y347146D01*
Y345044D01*
X218940D01*
X220480Y345044D01*
X223020Y345044D01*
X235480D01*
Y359044D01*
X235480D01*
X234169Y361250D01*
X234242Y361808D01*
X234242D01*
Y364629D01*
X234269Y364746D01*
X234262Y364784D01*
X234270Y364823D01*
X234242Y364968D01*
Y375808D01*
X223132D01*
X222242Y375808D01*
X219893Y375348D01*
X216512D01*
Y368808D01*
Y362268D01*
X219893D01*
X220501Y362149D01*
X221300Y360596D01*
X220354Y359044D01*
X218940Y359044D01*
X206480D01*
Y356942D01*
X205854Y356632D01*
X193211D01*
X192239Y358979D01*
X197434Y364173D01*
X198703Y364844D01*
X199109D01*
X201406Y365796D01*
X203165Y367554D01*
X204116Y369851D01*
Y372337D01*
X203165Y374634D01*
X201406Y376393D01*
X199109Y377344D01*
X196623D01*
X194326Y376393D01*
X192568Y374634D01*
X191616Y372337D01*
Y371931D01*
X190945Y370662D01*
X189561Y369277D01*
X187214Y370249D01*
Y407297D01*
X187637Y408668D01*
X187924Y408956D01*
X188876Y411253D01*
Y413739D01*
X187924Y416036D01*
X186166Y417794D01*
X183869Y418746D01*
X181383D01*
X179086Y417794D01*
X177327Y416036D01*
X176376Y413739D01*
Y411253D01*
X177327Y408956D01*
X177615Y408668D01*
X178038Y407297D01*
Y368153D01*
X171665Y361779D01*
X168772Y362479D01*
X168367Y363458D01*
X166608Y365216D01*
X165820Y365543D01*
X165199Y368515D01*
X168224Y371539D01*
X169493Y372210D01*
X169899D01*
X172196Y373162D01*
X173955Y374920D01*
X174906Y377217D01*
Y379703D01*
X173955Y382000D01*
X172196Y383759D01*
X169899Y384710D01*
X167413D01*
X165116Y383759D01*
X163358Y382000D01*
X162406Y379703D01*
Y379297D01*
X161735Y378028D01*
X160351Y376643D01*
X158004Y377616D01*
Y415687D01*
X160676Y420516D01*
X161178Y421018D01*
X162455Y423230D01*
X163116Y425697D01*
Y428251D01*
X162455Y430718D01*
X161178Y432930D01*
X159372Y434736D01*
X157160Y436013D01*
X154693Y436674D01*
X152139D01*
X149672Y436013D01*
X147460Y434736D01*
X145654Y432930D01*
X144377Y430718D01*
X143716Y428251D01*
Y425697D01*
X144377Y423230D01*
X145654Y421018D01*
X146156Y420516D01*
X148828Y415687D01*
Y403270D01*
X146481Y402297D01*
X132778Y416001D01*
X135276Y420516D01*
X135778Y421018D01*
X137055Y423230D01*
X137716Y425697D01*
Y428251D01*
X137055Y430718D01*
X135778Y432930D01*
X133972Y434736D01*
X131760Y436013D01*
X129293Y436674D01*
X126739D01*
X124272Y436013D01*
X122060Y434736D01*
X120254Y432930D01*
X118977Y430718D01*
X118316Y428251D01*
Y425697D01*
X118977Y423230D01*
X120254Y421018D01*
X120756Y420516D01*
X123428Y415687D01*
Y414274D01*
X123777Y412518D01*
X124772Y411030D01*
X141208Y394594D01*
Y375535D01*
X127932Y362258D01*
X126937Y360770D01*
X126588Y359014D01*
Y345295D01*
X126471Y344934D01*
X125676D01*
Y342046D01*
X125648Y341903D01*
X125672Y341782D01*
X125658Y341659D01*
X125676Y341594D01*
Y329474D01*
X125676Y326934D01*
X122788Y326934D01*
X122646Y326962D01*
X122503Y326934D01*
X122476D01*
X122341Y326947D01*
X122298Y326934D01*
X118619D01*
X118512Y327104D01*
X117841Y329474D01*
X119090Y330724D01*
X120042Y333021D01*
Y335507D01*
X119090Y337804D01*
X119006Y337889D01*
X118634Y339252D01*
Y374148D01*
X118876Y374322D01*
X121174Y375028D01*
X122343Y373860D01*
X124450Y372644D01*
X126746Y372028D01*
Y381254D01*
Y390480D01*
X124450Y389864D01*
X122343Y388648D01*
X121174Y387480D01*
X118876Y388186D01*
X118634Y388360D01*
Y389128D01*
X118285Y390884D01*
X117290Y392372D01*
X107384Y402278D01*
X105896Y403273D01*
X104140Y403622D01*
X81657D01*
X63041Y422238D01*
X61516Y427541D01*
Y428251D01*
X60855Y430718D01*
X59578Y432930D01*
X57772Y434736D01*
X55560Y436013D01*
X53093Y436674D01*
X50539D01*
X48972Y436254D01*
X45396Y436684D01*
X45066Y436905D01*
X43310Y437254D01*
X35069D01*
X32654Y438666D01*
X32194Y441015D01*
Y441206D01*
Y444396D01*
D02*
G37*
G36*
X137242Y379984D02*
X129286D01*
Y372028D01*
X131582Y372644D01*
X133689Y373860D01*
X135410Y375580D01*
X136626Y377687D01*
X137242Y379984D01*
D02*
G37*
G36*
X53093Y390954D02*
X50539D01*
X48072Y390293D01*
X45860Y389016D01*
X44054Y387210D01*
X42777Y384998D01*
X42116Y382531D01*
Y379977D01*
X42777Y377510D01*
X44054Y375298D01*
X45860Y373492D01*
X48072Y372215D01*
X50539Y371554D01*
X53093D01*
X55560Y372215D01*
X57772Y373492D01*
X59578Y375298D01*
X60855Y377510D01*
X61516Y379977D01*
Y382531D01*
X60855Y384998D01*
X59578Y387210D01*
X57772Y389016D01*
X55560Y390293D01*
X53093Y390954D01*
D02*
G37*
G36*
X213972Y375348D02*
X209702D01*
Y370078D01*
X213972D01*
Y375348D01*
D02*
G37*
G36*
Y367538D02*
X209702D01*
Y362268D01*
X213972D01*
Y367538D01*
D02*
G37*
G36*
X287196Y355536D02*
X287346Y352966D01*
X285646D01*
Y350266D01*
X289916D01*
Y355536D01*
X287196D01*
D02*
G37*
G36*
X302828Y351378D02*
X298958D01*
Y347308D01*
X302828D01*
Y351378D01*
D02*
G37*
G36*
X61153Y366111D02*
X58666D01*
X56369Y365160D01*
X54611Y363402D01*
X54291Y362628D01*
X53142Y361129D01*
X42922Y350908D01*
X41927Y349420D01*
X41640Y347975D01*
X41268Y347224D01*
X38166D01*
Y335224D01*
X54166D01*
Y347224D01*
X54166D01*
X53594Y348604D01*
X58326Y353335D01*
X59018Y353611D01*
X61153D01*
X63450Y354563D01*
X65208Y356321D01*
X66160Y358618D01*
Y361105D01*
X65208Y363402D01*
X63450Y365160D01*
X61153Y366111D01*
D02*
G37*
G36*
X258037Y370486D02*
X255551D01*
X253254Y369534D01*
X251495Y367776D01*
X250544Y365479D01*
Y362993D01*
X251495Y360696D01*
X253254Y358937D01*
X255388Y358053D01*
X262426Y351015D01*
X265038Y345792D01*
X263422Y343926D01*
X263133Y343804D01*
X252596D01*
X251706Y343804D01*
X249357Y343344D01*
X245976D01*
Y336804D01*
Y330264D01*
X249357D01*
X251706Y329804D01*
X252596Y329804D01*
X254444D01*
X256466Y328554D01*
Y323729D01*
X259037Y325014D01*
Y323284D01*
X260256D01*
Y320744D01*
X259037D01*
Y319014D01*
X256466Y320299D01*
Y317717D01*
X256364Y316524D01*
X254478Y315913D01*
X253926Y315808D01*
X252512Y316753D01*
X250756Y317102D01*
X239550D01*
X230211Y326442D01*
X229516Y327686D01*
Y327887D01*
X228564Y330184D01*
X226806Y331942D01*
X224509Y332894D01*
X222023D01*
X219726Y331942D01*
X217967Y330184D01*
X217016Y327887D01*
Y325401D01*
X217967Y323104D01*
X219726Y321345D01*
X222023Y320394D01*
X222651D01*
X223915Y319760D01*
X234033Y309642D01*
X233726Y308160D01*
X233078Y307102D01*
X229230D01*
X227139Y309194D01*
X226468Y310463D01*
Y310869D01*
X225516Y313166D01*
X223758Y314925D01*
X221461Y315876D01*
X218975D01*
X216678Y314925D01*
X214919Y313166D01*
X213968Y310869D01*
Y308383D01*
X214919Y306086D01*
X216363Y304642D01*
X216103Y303158D01*
X215584Y302102D01*
X210990D01*
X210676Y302195D01*
Y302934D01*
X210216D01*
Y304164D01*
X201676D01*
X193136D01*
Y302934D01*
X192676D01*
Y291934D01*
Y283934D01*
Y275934D01*
X193136D01*
Y274704D01*
X201676D01*
X210216D01*
Y275934D01*
X210676D01*
Y276729D01*
X211037Y276846D01*
X213235D01*
X214059Y276022D01*
X214730Y274753D01*
Y274347D01*
X215681Y272050D01*
X217440Y270292D01*
X219737Y269340D01*
X222223D01*
X224520Y270292D01*
X226278Y272050D01*
X227230Y274347D01*
Y276833D01*
X226278Y279130D01*
X224520Y280889D01*
X222809Y281597D01*
X222444Y282613D01*
X223931Y284846D01*
X224156D01*
X225912Y285195D01*
X227400Y286190D01*
X229137Y287926D01*
X246603D01*
X247655Y285386D01*
X236398Y274129D01*
X235129Y273458D01*
X234723D01*
X232426Y272507D01*
X230667Y270748D01*
X229716Y268451D01*
Y265965D01*
X230667Y263668D01*
X232426Y261910D01*
X234723Y260958D01*
X237209D01*
X239506Y261910D01*
X241264Y263668D01*
X242216Y265965D01*
Y266371D01*
X242887Y267640D01*
X253672Y278426D01*
X255380D01*
X257710Y277273D01*
X257810Y277246D01*
X257896Y277188D01*
X258383Y277091D01*
X258862Y276962D01*
X258965Y276975D01*
X259067Y276955D01*
X259554Y277052D01*
X260046Y277116D01*
X260136Y277168D01*
X260238Y277188D01*
X260650Y277464D01*
X260737Y277514D01*
X266466D01*
Y276474D01*
X266470D01*
X266958Y275409D01*
X265303Y272923D01*
X262255D01*
Y269621D01*
Y256413D01*
X243205D01*
Y256350D01*
X240919D01*
Y220408D01*
Y216916D01*
X317881D01*
Y220408D01*
Y260985D01*
X297815D01*
Y263525D01*
X293243D01*
Y273685D01*
X287401D01*
Y285853D01*
X289756Y287926D01*
X304439D01*
X312743Y279622D01*
X314232Y278627D01*
X315988Y278278D01*
X330175D01*
X330696Y278057D01*
Y277066D01*
X333567D01*
X333703Y277038D01*
X333715Y277040D01*
X333727Y277038D01*
X333869Y277066D01*
X338723D01*
X338866Y277038D01*
X338877Y277040D01*
X338889Y277038D01*
X339025Y277066D01*
X341896D01*
Y278057D01*
X342417Y278278D01*
X345495D01*
X346916Y275476D01*
Y275449D01*
X346888Y275306D01*
X346890Y275295D01*
X346888Y275283D01*
X346916Y275147D01*
Y272276D01*
X347907D01*
X348128Y271755D01*
Y266217D01*
X347907Y265696D01*
X346916D01*
Y262825D01*
X346888Y262689D01*
X346890Y262677D01*
X346888Y262666D01*
X346916Y262523D01*
Y254496D01*
X358516D01*
Y254956D01*
X359246D01*
Y260096D01*
Y265236D01*
X358516D01*
Y265696D01*
X357524D01*
X357304Y266217D01*
Y271755D01*
X357524Y272276D01*
X358516D01*
Y272736D01*
X359246D01*
Y277876D01*
Y283016D01*
X358516D01*
Y283476D01*
X354916D01*
X351849Y285032D01*
X350770Y286110D01*
X349282Y287105D01*
X347526Y287454D01*
X342417D01*
X341896Y287675D01*
Y296466D01*
X333869D01*
X333727Y296494D01*
X333715Y296492D01*
X333703Y296494D01*
X333567Y296466D01*
X330696D01*
X330696Y296466D01*
Y296466D01*
X328822Y297899D01*
X326949Y299771D01*
X326186Y301297D01*
X326183Y301329D01*
X327746Y303858D01*
X333821D01*
X335577Y304207D01*
X337065Y305202D01*
X337433Y305570D01*
X338763Y306691D01*
X351466D01*
Y307914D01*
X352099Y308230D01*
X357143D01*
X357366Y308175D01*
Y307546D01*
X360241D01*
X360379Y307518D01*
X360525Y307546D01*
X368566D01*
Y316338D01*
X369087Y316558D01*
X379594D01*
X379844Y316493D01*
Y315832D01*
X382732D01*
X382874Y315804D01*
X383017Y315832D01*
X388844D01*
Y300832D01*
X401338D01*
X401648Y300206D01*
Y296951D01*
X401427Y296430D01*
X400436D01*
Y295970D01*
X399706D01*
Y290830D01*
Y285690D01*
X400436D01*
Y285230D01*
X412036D01*
Y293257D01*
X412064Y293400D01*
X412062Y293411D01*
X412064Y293423D01*
X412036Y293559D01*
Y296430D01*
X411045D01*
X410824Y296951D01*
Y300206D01*
X411134Y300832D01*
X416844D01*
Y317332D01*
X407742D01*
X407432Y317958D01*
Y329706D01*
X407742Y330332D01*
X416844D01*
Y346832D01*
X388844D01*
Y331832D01*
X379844D01*
Y326051D01*
X379211Y325734D01*
X369087D01*
X368566Y325955D01*
Y326946D01*
X365695D01*
X365559Y326974D01*
X365547Y326972D01*
X365536Y326974D01*
X365393Y326946D01*
X357366D01*
Y317716D01*
X356740Y317407D01*
X351547D01*
X351466Y317421D01*
Y317891D01*
X348578D01*
X348436Y317919D01*
X348293Y317891D01*
X332066D01*
Y313388D01*
X331768Y313034D01*
X325907D01*
X325386Y313255D01*
Y314246D01*
X322515D01*
X322379Y314274D01*
X322367Y314272D01*
X322355Y314274D01*
X322213Y314246D01*
X317359D01*
X317216Y314274D01*
X317205Y314272D01*
X317193Y314274D01*
X317057Y314246D01*
X314186D01*
Y313255D01*
X313665Y313034D01*
X309087D01*
X307331Y312685D01*
X305843Y311690D01*
X301255Y307102D01*
X296296D01*
Y311304D01*
X295256D01*
Y315264D01*
X288086D01*
X287835Y317804D01*
X288874Y318011D01*
X290280Y318950D01*
X299954Y328624D01*
X300893Y330030D01*
X301223Y331688D01*
Y332295D01*
X301295Y332438D01*
X303288D01*
Y344038D01*
X302828D01*
Y344768D01*
X297688D01*
Y346038D01*
X296418D01*
Y351378D01*
X292548D01*
Y346594D01*
X292456Y346532D01*
X290217Y347726D01*
X284376D01*
Y348996D01*
X283106D01*
Y352966D01*
X281406D01*
X281740Y355536D01*
X279725D01*
X277376Y355996D01*
X276486Y355996D01*
X275235D01*
X270471Y358832D01*
X262493Y366810D01*
X262092Y367776D01*
X260334Y369534D01*
X258037Y370486D01*
D02*
G37*
G36*
X243436Y343344D02*
X239166D01*
Y338074D01*
X243436D01*
Y343344D01*
D02*
G37*
G36*
Y335534D02*
X239166D01*
Y330264D01*
X243436D01*
Y335534D01*
D02*
G37*
G36*
X210216Y326474D02*
X205383D01*
X206676Y323873D01*
X202946D01*
Y322704D01*
X210216D01*
Y326474D01*
D02*
G37*
G36*
X29691Y335180D02*
X27205D01*
X24908Y334229D01*
X23149Y332470D01*
X22198Y330173D01*
Y327687D01*
X23149Y325390D01*
X23602Y324937D01*
X24770Y323190D01*
X29701Y318259D01*
X31520Y317043D01*
X33666Y316616D01*
X36575D01*
X38166Y316467D01*
Y316224D01*
X40752D01*
X40911Y316209D01*
X41055Y316224D01*
X41196Y316196D01*
X41339Y316224D01*
X54166D01*
Y328224D01*
X41339D01*
X41196Y328252D01*
X41055Y328224D01*
X40911Y328239D01*
X40752Y328224D01*
X38166D01*
Y328224D01*
X36705Y328207D01*
X34698Y330081D01*
Y330173D01*
X33747Y332470D01*
X31988Y334229D01*
X29691Y335180D01*
D02*
G37*
G36*
X210216Y320164D02*
X204543D01*
X205124Y318995D01*
X206676D01*
X205900Y317434D01*
X206676Y315873D01*
X205124D01*
X204543Y314704D01*
X210216D01*
Y316394D01*
Y320164D01*
D02*
G37*
G36*
X198808D02*
X193136D01*
Y316394D01*
Y314704D01*
X198808D01*
X198228Y315873D01*
X196676D01*
X197452Y317434D01*
X196676Y318995D01*
X198228D01*
X198808Y320164D01*
D02*
G37*
G36*
X210216Y312164D02*
X201676D01*
X193136D01*
Y308394D01*
Y306704D01*
X201676D01*
X210216D01*
Y308394D01*
Y312164D01*
D02*
G37*
G36*
X397166Y295970D02*
X393096D01*
Y292397D01*
X395667Y293400D01*
Y292453D01*
X396569Y292499D01*
Y292100D01*
X397166D01*
Y295970D01*
D02*
G37*
G36*
X28421Y311812D02*
X25935D01*
X23638Y310861D01*
X21879Y309102D01*
X20928Y306805D01*
Y304319D01*
X21879Y302022D01*
X23638Y300264D01*
X25935Y299312D01*
X26341D01*
X27610Y298641D01*
X31205Y295047D01*
X32693Y294052D01*
X34449Y293703D01*
X37540D01*
X38166Y293393D01*
Y292044D01*
X54166D01*
Y304044D01*
X41352D01*
X41214Y304072D01*
X41197Y304069D01*
X41180Y304072D01*
X41042Y304044D01*
X38166D01*
Y304044D01*
X35626Y303603D01*
X34099Y305130D01*
X33428Y306399D01*
Y306805D01*
X32476Y309102D01*
X30718Y310861D01*
X28421Y311812D01*
D02*
G37*
G36*
X397166Y289560D02*
X396569D01*
Y288961D01*
X395667Y289007D01*
Y288260D01*
X393096Y289091D01*
Y285690D01*
X397166D01*
Y289560D01*
D02*
G37*
G36*
X41196Y285072D02*
X41055Y285044D01*
X40911Y285059D01*
X40752Y285044D01*
X38166D01*
Y284801D01*
X36575Y284652D01*
X25806D01*
X23660Y284225D01*
X21841Y283009D01*
X12291Y273459D01*
X11075Y271640D01*
X10648Y269494D01*
Y213614D01*
X11075Y211468D01*
X12291Y209649D01*
X21231Y200709D01*
X23066Y196409D01*
Y195827D01*
X23727Y193360D01*
X25004Y191148D01*
X26810Y189342D01*
X29022Y188065D01*
X31489Y187404D01*
X34043D01*
X36510Y188065D01*
X38722Y189342D01*
X40528Y191148D01*
X41805Y193360D01*
X42466Y195827D01*
Y198381D01*
X41805Y200848D01*
X40528Y203060D01*
X38722Y204866D01*
X36510Y206143D01*
X34043Y206804D01*
X33461D01*
X29161Y208639D01*
X21864Y215937D01*
Y267171D01*
X28129Y273436D01*
X36575D01*
X38166Y273287D01*
Y273044D01*
X40752D01*
X40911Y273029D01*
X41055Y273044D01*
X41196Y273016D01*
X41339Y273044D01*
X54166D01*
Y285044D01*
X41339D01*
X41196Y285072D01*
D02*
G37*
G36*
X365856Y283016D02*
X361786D01*
Y279146D01*
X362283D01*
Y279645D01*
X363285Y279593D01*
Y280445D01*
X365856Y279529D01*
Y283016D01*
D02*
G37*
G36*
X362283Y276606D02*
X361786D01*
Y272736D01*
X365856D01*
Y276223D01*
X363285Y275306D01*
Y276159D01*
X362283Y276107D01*
Y276606D01*
D02*
G37*
G36*
X365856Y265236D02*
X361786D01*
Y261366D01*
X362312D01*
Y261836D01*
X363285Y261786D01*
Y262666D01*
X365856Y261724D01*
Y265236D01*
D02*
G37*
G36*
X362312Y258826D02*
X361786D01*
Y254956D01*
X365856D01*
Y258418D01*
X363285Y257526D01*
Y258348D01*
X362312Y258298D01*
Y258826D01*
D02*
G37*
G36*
X32739Y266854D02*
X30253D01*
X27956Y265903D01*
X26198Y264144D01*
X25246Y261847D01*
Y259361D01*
X26198Y257064D01*
X27956Y255306D01*
X30253Y254354D01*
X32739D01*
X35036Y255306D01*
X37304Y254564D01*
X38166Y252864D01*
Y248864D01*
X54166D01*
Y260864D01*
X46166D01*
X43171Y262383D01*
X42809Y262709D01*
X41957Y263561D01*
X40469Y264556D01*
X38956Y264857D01*
X38908Y264869D01*
X38884Y264871D01*
X38713Y264905D01*
X38351D01*
X36559Y265020D01*
X35581Y265358D01*
X35036Y265903D01*
X32739Y266854D01*
D02*
G37*
G36*
X79983Y265076D02*
X77497D01*
X75200Y264125D01*
X73442Y262366D01*
X72490Y260069D01*
Y257583D01*
X72845Y256725D01*
Y254115D01*
X67683Y251364D01*
X62166D01*
Y239364D01*
X75138D01*
X75304Y239340D01*
X75396Y239364D01*
X78166D01*
Y241505D01*
X81002Y246269D01*
X82418Y247686D01*
X83634Y249505D01*
X84061Y251651D01*
Y255339D01*
X84990Y257583D01*
Y260069D01*
X84038Y262366D01*
X82280Y264125D01*
X79983Y265076D01*
D02*
G37*
G36*
X100136Y236384D02*
X96266D01*
Y236285D01*
X97565Y234884D01*
X96266Y233990D01*
Y232314D01*
X100136D01*
Y236384D01*
D02*
G37*
G36*
X89856Y233919D02*
Y232314D01*
X91461D01*
X89856Y233919D01*
D02*
G37*
G36*
X114608Y230294D02*
X110338D01*
Y226908D01*
X112909Y227724D01*
Y225024D01*
X114608D01*
Y230294D01*
D02*
G37*
G36*
X114676Y210058D02*
X112977D01*
Y207358D01*
X110406Y208114D01*
Y204788D01*
X114676D01*
Y210058D01*
D02*
G37*
G36*
X158580Y210312D02*
X154310D01*
Y207612D01*
X156010D01*
X155768Y205042D01*
X158580D01*
Y210312D01*
D02*
G37*
G36*
X386086Y211262D02*
X374086D01*
Y195262D01*
X386086D01*
Y197540D01*
X386712Y197850D01*
X389263D01*
X390634Y197427D01*
X390922Y197139D01*
X393219Y196188D01*
X395705D01*
X398002Y197139D01*
X399761Y198898D01*
X400712Y201195D01*
Y203681D01*
X399761Y205978D01*
X398002Y207736D01*
X395705Y208688D01*
X393219D01*
X390922Y207736D01*
X390634Y207449D01*
X389263Y207026D01*
X386712D01*
X386086Y207336D01*
Y211262D01*
D02*
G37*
G36*
X54166Y241864D02*
X38166D01*
Y233037D01*
X38138Y232894D01*
X38158Y232794D01*
X38144Y232693D01*
X38166Y232612D01*
Y229864D01*
X39282D01*
X40558Y227279D01*
Y224344D01*
X40985Y222198D01*
X42201Y220379D01*
X61871Y200709D01*
X63706Y196409D01*
Y195827D01*
X64367Y193360D01*
X65644Y191148D01*
X67450Y189342D01*
X69662Y188065D01*
X72129Y187404D01*
X74683D01*
X77150Y188065D01*
X79362Y189342D01*
X81168Y191148D01*
X82445Y193360D01*
X83106Y195827D01*
Y198381D01*
X82445Y200848D01*
X81168Y203060D01*
X79362Y204866D01*
X77150Y206143D01*
X74683Y206804D01*
X74101D01*
X69801Y208639D01*
X51774Y226667D01*
Y227279D01*
X53050Y229864D01*
X54166D01*
Y232612D01*
X54188Y232693D01*
X54174Y232794D01*
X54194Y232894D01*
X54166Y233037D01*
Y241864D01*
D02*
G37*
G36*
X114046Y188550D02*
Y180594D01*
X122002D01*
X121386Y182890D01*
X120170Y184998D01*
X118449Y186718D01*
X116342Y187934D01*
X114046Y188550D01*
D02*
G37*
G36*
X111506D02*
X109209Y187934D01*
X107102Y186718D01*
X105382Y184998D01*
X104166Y182890D01*
X103550Y180594D01*
X111506D01*
Y188550D01*
D02*
G37*
G36*
X122002Y178054D02*
X114046D01*
Y170098D01*
X116342Y170714D01*
X118449Y171930D01*
X120170Y173650D01*
X121386Y175758D01*
X122002Y178054D01*
D02*
G37*
G36*
X111506D02*
X103550D01*
X104166Y175758D01*
X105382Y173650D01*
X107102Y171930D01*
X109209Y170714D01*
X111506Y170098D01*
Y178054D01*
D02*
G37*
G36*
X74683Y181404D02*
X72129D01*
X69662Y180743D01*
X67450Y179466D01*
X65644Y177660D01*
X64367Y175448D01*
X63706Y172981D01*
Y170427D01*
X64367Y167960D01*
X65644Y165748D01*
X67450Y163942D01*
X69662Y162665D01*
X72129Y162004D01*
X74683D01*
X77150Y162665D01*
X79362Y163942D01*
X81168Y165748D01*
X82445Y167960D01*
X83106Y170427D01*
Y172981D01*
X82445Y175448D01*
X81168Y177660D01*
X79362Y179466D01*
X77150Y180743D01*
X74683Y181404D01*
D02*
G37*
G36*
X34043D02*
X31489D01*
X29022Y180743D01*
X26810Y179466D01*
X25004Y177660D01*
X23727Y175448D01*
X23066Y172981D01*
Y170427D01*
X23727Y167960D01*
X25004Y165748D01*
X26810Y163942D01*
X29022Y162665D01*
X31489Y162004D01*
X34043D01*
X36510Y162665D01*
X38722Y163942D01*
X40528Y165748D01*
X41805Y167960D01*
X42466Y170427D01*
Y172981D01*
X41805Y175448D01*
X40528Y177660D01*
X38722Y179466D01*
X36510Y180743D01*
X34043Y181404D01*
D02*
G37*
G36*
X194056Y158344D02*
X188786D01*
Y154074D01*
X194056D01*
Y158344D01*
D02*
G37*
G36*
X370586Y188844D02*
X368106Y188517D01*
X365795Y187560D01*
X365406Y187262D01*
X364586D01*
Y186632D01*
X363811Y186037D01*
X362288Y184053D01*
X361330Y181742D01*
X361004Y179262D01*
Y177038D01*
X361330Y174558D01*
X362288Y172247D01*
X363811Y170263D01*
X379106Y154967D01*
X379334Y154572D01*
X381140Y152766D01*
X383352Y151489D01*
X385819Y150828D01*
X388373D01*
X390840Y151489D01*
X393052Y152766D01*
X394858Y154572D01*
X396135Y156784D01*
X396796Y159251D01*
Y161805D01*
X396135Y164272D01*
X394858Y166484D01*
X393052Y168290D01*
X392657Y168518D01*
X379903Y181271D01*
X379841Y181742D01*
X378884Y184053D01*
X377361Y186037D01*
X376586Y186632D01*
Y187262D01*
X375766D01*
X375377Y187560D01*
X373066Y188517D01*
X370586Y188844D01*
D02*
G37*
G36*
X182686Y153834D02*
X178816D01*
Y153735D01*
X180116Y152334D01*
X178816Y151440D01*
Y149764D01*
X182686D01*
Y153834D01*
D02*
G37*
G36*
X172406Y151369D02*
Y149764D01*
X174011D01*
X172406Y151369D01*
D02*
G37*
G36*
X114053Y163624D02*
X111499D01*
X109032Y162963D01*
X106820Y161686D01*
X105014Y159880D01*
X103737Y157668D01*
X103076Y155201D01*
Y152647D01*
X103737Y150180D01*
X105014Y147968D01*
X106820Y146162D01*
X109032Y144885D01*
X111499Y144224D01*
X114053D01*
X116520Y144885D01*
X118732Y146162D01*
X120538Y147968D01*
X121815Y150180D01*
X122476Y152647D01*
Y155201D01*
X121815Y157668D01*
X120538Y159880D01*
X118732Y161686D01*
X116520Y162963D01*
X114053Y163624D01*
D02*
G37*
G36*
X355092Y145878D02*
Y137922D01*
X363048D01*
X362432Y140218D01*
X361216Y142325D01*
X359496Y144046D01*
X357388Y145262D01*
X355092Y145878D01*
D02*
G37*
G36*
X352552D02*
X350256Y145262D01*
X348148Y144046D01*
X346428Y142325D01*
X345212Y140218D01*
X344596Y137922D01*
X352552D01*
Y145878D01*
D02*
G37*
G36*
X74683Y156004D02*
X72129D01*
X69662Y155343D01*
X67450Y154066D01*
X65644Y152260D01*
X64367Y150048D01*
X63706Y147581D01*
Y145027D01*
X64367Y142560D01*
X65644Y140348D01*
X67450Y138542D01*
X69662Y137265D01*
X72129Y136604D01*
X74683D01*
X77150Y137265D01*
X79362Y138542D01*
X81168Y140348D01*
X82445Y142560D01*
X83106Y145027D01*
Y147581D01*
X82445Y150048D01*
X81168Y152260D01*
X79362Y154066D01*
X77150Y155343D01*
X74683Y156004D01*
D02*
G37*
G36*
X34043D02*
X31489D01*
X29022Y155343D01*
X26810Y154066D01*
X25004Y152260D01*
X23727Y150048D01*
X23066Y147581D01*
Y145027D01*
X23727Y142560D01*
X25004Y140348D01*
X26810Y138542D01*
X29022Y137265D01*
X31489Y136604D01*
X34043D01*
X36510Y137265D01*
X38722Y138542D01*
X40528Y140348D01*
X41805Y142560D01*
X42466Y145027D01*
Y147581D01*
X41805Y150048D01*
X40528Y152260D01*
X38722Y154066D01*
X36510Y155343D01*
X34043Y156004D01*
D02*
G37*
G36*
X388366Y144354D02*
Y136398D01*
X396322D01*
X395706Y138694D01*
X394490Y140801D01*
X392770Y142522D01*
X390662Y143738D01*
X388366Y144354D01*
D02*
G37*
G36*
X385826D02*
X383530Y143738D01*
X381423Y142522D01*
X379702Y140801D01*
X378486Y138694D01*
X377870Y136398D01*
X385826D01*
Y144354D01*
D02*
G37*
G36*
X363048Y135382D02*
X355092D01*
Y127426D01*
X357388Y128042D01*
X359496Y129258D01*
X361216Y130978D01*
X362432Y133085D01*
X363048Y135382D01*
D02*
G37*
G36*
X396322Y133858D02*
X388366D01*
Y125902D01*
X390662Y126518D01*
X392770Y127734D01*
X394490Y129454D01*
X395706Y131561D01*
X396322Y133858D01*
D02*
G37*
G36*
X385826D02*
X377870D01*
X378486Y131561D01*
X379702Y129454D01*
X381423Y127734D01*
X383530Y126518D01*
X385826Y125902D01*
Y133858D01*
D02*
G37*
G36*
X160464Y128626D02*
X157138D01*
X157893Y126055D01*
X155194D01*
Y124356D01*
X160464D01*
Y128626D01*
D02*
G37*
G36*
X150710D02*
X147384D01*
Y124356D01*
X152654D01*
Y126055D01*
X149955D01*
X150710Y128626D01*
D02*
G37*
G36*
X142684D02*
X137414D01*
Y124356D01*
X142684D01*
Y128626D01*
D02*
G37*
G36*
X134874D02*
X129604D01*
Y124356D01*
X134874D01*
Y128626D01*
D02*
G37*
G36*
X124904D02*
X119634D01*
Y124356D01*
X124904D01*
Y128626D01*
D02*
G37*
G36*
X117094D02*
X111824D01*
Y124356D01*
X117094D01*
Y128626D01*
D02*
G37*
G36*
X74676Y130130D02*
Y122174D01*
X82632D01*
X82016Y124471D01*
X80800Y126578D01*
X79079Y128298D01*
X76972Y129514D01*
X74676Y130130D01*
D02*
G37*
G36*
X34036D02*
Y122174D01*
X41992D01*
X41376Y124471D01*
X40160Y126578D01*
X38440Y128298D01*
X36332Y129514D01*
X34036Y130130D01*
D02*
G37*
G36*
X72136D02*
X69840Y129514D01*
X67733Y128298D01*
X66012Y126578D01*
X64796Y124471D01*
X64180Y122174D01*
X72136D01*
Y130130D01*
D02*
G37*
G36*
X31496D02*
X29200Y129514D01*
X27092Y128298D01*
X25372Y126578D01*
X24156Y124471D01*
X23540Y122174D01*
X31496D01*
Y130130D01*
D02*
G37*
G36*
X176844Y125826D02*
X172974D01*
Y121756D01*
X176844D01*
Y125826D01*
D02*
G37*
G36*
X170434D02*
X166564D01*
Y121756D01*
X170434D01*
Y125826D01*
D02*
G37*
G36*
X300796Y121254D02*
X296926D01*
Y117184D01*
X300796D01*
Y121254D01*
D02*
G37*
G36*
X281686D02*
X277816D01*
Y117184D01*
X281686D01*
Y121254D01*
D02*
G37*
G36*
X82632Y119634D02*
X74676D01*
Y111678D01*
X76972Y112294D01*
X79079Y113510D01*
X80800Y115231D01*
X82016Y117338D01*
X82632Y119634D01*
D02*
G37*
G36*
X41992D02*
X34036D01*
Y111678D01*
X36332Y112294D01*
X38440Y113510D01*
X40160Y115231D01*
X41376Y117338D01*
X41992Y119634D01*
D02*
G37*
G36*
X72136D02*
X64180D01*
X64796Y117338D01*
X66012Y115231D01*
X67733Y113510D01*
X69840Y112294D01*
X72136Y111678D01*
Y119634D01*
D02*
G37*
G36*
X31496D02*
X23540D01*
X24156Y117338D01*
X25372Y115231D01*
X27092Y113510D01*
X29200Y112294D01*
X31496Y111678D01*
Y119634D01*
D02*
G37*
G36*
X160464Y121816D02*
X147384D01*
Y118435D01*
X146924Y116086D01*
X146924Y115197D01*
Y110257D01*
X144384Y109658D01*
X143144Y112138D01*
X143144Y116086D01*
X142684Y118435D01*
Y121816D01*
X129604D01*
Y118435D01*
X129144Y116086D01*
X129144Y115197D01*
Y110257D01*
X126604Y109658D01*
X125364Y112138D01*
X125364Y116086D01*
X124904Y118435D01*
Y121816D01*
X111824D01*
Y118435D01*
X111364Y116086D01*
X111364Y115197D01*
Y104086D01*
X117312D01*
X120438Y102523D01*
X134680Y88281D01*
X133708Y85934D01*
X130523D01*
Y85476D01*
X126324D01*
Y75936D01*
Y68967D01*
X129024D01*
X128312Y66396D01*
X130523D01*
Y65934D01*
X131188D01*
X131761Y63756D01*
Y63390D01*
X131164Y61949D01*
Y59463D01*
X132115Y57166D01*
X133874Y55408D01*
X136171Y54456D01*
X138657D01*
X140954Y55408D01*
X142712Y57166D01*
X143664Y59463D01*
Y61949D01*
X142977Y63609D01*
X143972Y65932D01*
X161667D01*
X162216Y63774D01*
Y62970D01*
X161898Y62203D01*
Y59717D01*
X162850Y57420D01*
X164608Y55662D01*
X166905Y54710D01*
X169391D01*
X171688Y55662D01*
X173447Y57420D01*
X174398Y59717D01*
Y62203D01*
X173890Y63429D01*
X174623Y65932D01*
X176883Y66371D01*
X176123Y68959D01*
X178822D01*
Y75928D01*
Y85468D01*
X174623D01*
Y85932D01*
X159249D01*
X158940Y86558D01*
Y92879D01*
X158590Y94635D01*
X157596Y96123D01*
X151979Y101739D01*
X152951Y104086D01*
X157751D01*
X157893Y104058D01*
X158035Y104086D01*
X158180Y104071D01*
X158338Y104086D01*
X160924D01*
Y104329D01*
X162515Y104478D01*
X185423D01*
X187225Y103732D01*
X189711D01*
X192008Y104684D01*
X193766Y106442D01*
X194718Y108739D01*
Y111225D01*
X193766Y113522D01*
X192008Y115281D01*
X189711Y116232D01*
X187225D01*
X185925Y115694D01*
X179893D01*
X177304Y116980D01*
Y118486D01*
X176844D01*
Y119216D01*
X171704D01*
X166564D01*
Y118486D01*
X166104D01*
Y116980D01*
X163515Y115694D01*
X162515D01*
X162197Y115724D01*
X160683Y117315D01*
X160464Y118435D01*
Y118626D01*
Y121816D01*
D02*
G37*
G36*
X257906Y108204D02*
X253836D01*
Y104334D01*
X257906D01*
Y108204D01*
D02*
G37*
G36*
X384817Y114602D02*
X382263D01*
X379796Y113941D01*
X377584Y112664D01*
X375778Y110858D01*
X374501Y108646D01*
X373840Y106179D01*
Y103625D01*
X374501Y101158D01*
X375778Y98946D01*
X377584Y97140D01*
X379796Y95863D01*
X382263Y95202D01*
X384817D01*
X387284Y95863D01*
X389496Y97140D01*
X391302Y98946D01*
X392579Y101158D01*
X393240Y103625D01*
Y106179D01*
X392579Y108646D01*
X391302Y110858D01*
X389496Y112664D01*
X387284Y113941D01*
X384817Y114602D01*
D02*
G37*
G36*
X123784Y85476D02*
X118514D01*
Y81039D01*
X116960Y80372D01*
X115974Y80327D01*
X114886Y81745D01*
X113183Y83051D01*
X111201Y83873D01*
X109073Y84153D01*
X106946Y83873D01*
X104963Y83051D01*
X103261Y81745D01*
X101954Y80043D01*
X101133Y78060D01*
X100853Y75932D01*
Y69932D01*
X101133Y67805D01*
X101954Y65822D01*
X103261Y64120D01*
X104963Y62813D01*
X106946Y61992D01*
X109073Y61712D01*
X111201Y61992D01*
X113183Y62813D01*
X114886Y64120D01*
X116192Y65822D01*
X116202Y65846D01*
X118514Y66396D01*
X119179Y66396D01*
X121883D01*
X121085Y68967D01*
X123784D01*
Y75936D01*
Y85476D01*
D02*
G37*
G36*
X221915Y74648D02*
X218045D01*
Y70578D01*
X221915D01*
Y74648D01*
D02*
G37*
G36*
X387858Y76536D02*
Y68580D01*
X395814D01*
X395198Y70876D01*
X393982Y72983D01*
X392262Y74704D01*
X390154Y75920D01*
X387858Y76536D01*
D02*
G37*
G36*
X385318D02*
X383022Y75920D01*
X380914Y74704D01*
X379194Y72983D01*
X377978Y70876D01*
X377362Y68580D01*
X385318D01*
Y76536D01*
D02*
G37*
G36*
X261716Y66354D02*
X257646D01*
Y62484D01*
X261716D01*
Y66354D01*
D02*
G37*
G36*
X186632Y85468D02*
X181362D01*
Y75928D01*
Y68959D01*
X184062D01*
X183306Y66388D01*
X185970D01*
X186632Y66388D01*
X188946Y65842D01*
X188954Y65822D01*
X190261Y64120D01*
X191963Y62813D01*
X193946Y61992D01*
X196073Y61712D01*
X198201Y61992D01*
X200183Y62813D01*
X201886Y64120D01*
X203192Y65822D01*
X204014Y67805D01*
X204294Y69932D01*
Y75932D01*
X204014Y78060D01*
X203192Y80043D01*
X201886Y81745D01*
X200183Y83051D01*
X198201Y83873D01*
X196073Y84153D01*
X193946Y83873D01*
X191963Y83051D01*
X190261Y81745D01*
X189172Y80327D01*
X188187Y80372D01*
X186632Y81039D01*
Y85468D01*
D02*
G37*
G36*
X395814Y66040D02*
X387858D01*
Y58084D01*
X390154Y58700D01*
X392262Y59916D01*
X393982Y61637D01*
X395198Y63744D01*
X395814Y66040D01*
D02*
G37*
G36*
X385318D02*
X377362D01*
X377978Y63744D01*
X379194Y61637D01*
X380914Y59916D01*
X383022Y58700D01*
X385318Y58084D01*
Y66040D01*
D02*
G37*
G36*
X261716Y59944D02*
X257646D01*
Y56074D01*
X261716D01*
Y59944D01*
D02*
G37*
G36*
X312145Y51788D02*
X308275D01*
Y47718D01*
X312145D01*
Y51788D01*
D02*
G37*
G36*
X305735D02*
X301865D01*
Y47718D01*
X305735D01*
Y51788D01*
D02*
G37*
G36*
X331276Y50964D02*
X327406D01*
Y46894D01*
X331276D01*
Y50964D01*
D02*
G37*
G36*
X324866D02*
X320996D01*
Y46894D01*
X324866D01*
Y50964D01*
D02*
G37*
G36*
X247306Y48574D02*
X243236D01*
Y44704D01*
X247306D01*
Y48574D01*
D02*
G37*
G36*
Y42164D02*
X243236D01*
Y38294D01*
X247306D01*
Y42164D01*
D02*
G37*
G36*
X196073Y46153D02*
X193946Y45873D01*
X191963Y45051D01*
X190261Y43745D01*
X188954Y42043D01*
X188133Y40060D01*
X187853Y37932D01*
Y31932D01*
X188133Y29805D01*
X188954Y27822D01*
X190261Y26120D01*
X191963Y24813D01*
X193946Y23992D01*
X196073Y23712D01*
X198201Y23992D01*
X200183Y24813D01*
X201886Y26120D01*
X203192Y27822D01*
X204014Y29805D01*
X204294Y31932D01*
Y37932D01*
X204014Y40060D01*
X203192Y42043D01*
X201886Y43745D01*
X200183Y45051D01*
X198201Y45873D01*
X196073Y46153D01*
D02*
G37*
G36*
X109073D02*
X106946Y45873D01*
X104963Y45051D01*
X103261Y43745D01*
X101954Y42043D01*
X101133Y40060D01*
X100853Y37932D01*
Y31932D01*
X101133Y29805D01*
X101954Y27822D01*
X103261Y26120D01*
X104963Y24813D01*
X106946Y23992D01*
X109073Y23712D01*
X111201Y23992D01*
X113183Y24813D01*
X114886Y26120D01*
X116192Y27822D01*
X117014Y29805D01*
X117294Y31932D01*
Y37932D01*
X117014Y40060D01*
X116192Y42043D01*
X114886Y43745D01*
X113183Y45051D01*
X111201Y45873D01*
X109073Y46153D01*
D02*
G37*
G36*
X40304Y66100D02*
X35896D01*
X31543Y65410D01*
X27352Y64049D01*
X23425Y62048D01*
X19859Y59457D01*
X16743Y56341D01*
X14152Y52775D01*
X12151Y48848D01*
X10790Y44657D01*
X10100Y40304D01*
Y35896D01*
X10790Y31543D01*
X12151Y27352D01*
X14152Y23425D01*
X16743Y19859D01*
X19859Y16743D01*
X23425Y14152D01*
X27352Y12151D01*
X31543Y10790D01*
X35896Y10100D01*
X40304D01*
X44657Y10790D01*
X48848Y12151D01*
X52775Y14152D01*
X56341Y16743D01*
X59457Y19859D01*
X62048Y23425D01*
X64049Y27352D01*
X65410Y31543D01*
X66100Y35896D01*
Y40304D01*
X65410Y44657D01*
X64049Y48848D01*
X62048Y52775D01*
X59457Y56341D01*
X56341Y59457D01*
X52775Y62048D01*
X48848Y64049D01*
X44657Y65410D01*
X40304Y66100D01*
D02*
G37*
%LPD*%
G36*
X348074Y432237D02*
X345075Y433706D01*
Y436706D01*
X348074Y438176D01*
Y432237D01*
D02*
G37*
G36*
X303791Y416100D02*
X301151Y403207D01*
X288777Y415581D01*
X301670Y418221D01*
X303791Y416100D01*
D02*
G37*
G36*
X32624Y434166D02*
Y431166D01*
X29623Y429697D01*
Y435635D01*
X32624Y434166D01*
D02*
G37*
G36*
X49207Y433145D02*
X45254Y425622D01*
X42462Y431393D01*
X44370Y433727D01*
X49207Y433145D01*
D02*
G37*
G36*
X60337Y420575D02*
X58215Y418453D01*
X51883Y420274D01*
X58516Y426907D01*
X60337Y420575D01*
D02*
G37*
G36*
X154916Y416424D02*
X151916D01*
X148726Y422189D01*
X158106D01*
X154916Y416424D01*
D02*
G37*
G36*
X129516D02*
X126516D01*
X123326Y422189D01*
X132706D01*
X129516Y416424D01*
D02*
G37*
G36*
X184126Y407663D02*
X181126D01*
X180351Y410175D01*
X184901D01*
X184126Y407663D01*
D02*
G37*
G36*
X168624Y375210D02*
X166299Y373982D01*
X164178Y376103D01*
X165406Y378428D01*
X168624Y375210D01*
D02*
G37*
G36*
X85737Y374855D02*
X83615Y372733D01*
X77283Y374554D01*
X83916Y381187D01*
X85737Y374855D01*
D02*
G37*
G36*
X197833Y367844D02*
X195509Y366616D01*
X193388Y368737D01*
X194616Y371062D01*
X197833Y367844D01*
D02*
G37*
G36*
X231211Y364838D02*
X229861Y361838D01*
X226861D01*
X225361Y364869D01*
X231211Y364838D01*
D02*
G37*
G36*
X231361Y356013D02*
X225361D01*
X226861Y359013D01*
X229861D01*
X231361Y356013D01*
D02*
G37*
G36*
X163036Y356668D02*
X160711Y355440D01*
X158590Y357561D01*
X159818Y359885D01*
X163036Y356668D01*
D02*
G37*
G36*
X209541Y349044D02*
X206511Y350544D01*
Y353544D01*
X209541Y355044D01*
Y349044D01*
D02*
G37*
G36*
X165646Y341903D02*
X160707D01*
X161676Y344903D01*
X164676D01*
X165646Y341903D01*
D02*
G37*
G36*
X157646D02*
X152706D01*
X153676Y344903D01*
X156676D01*
X157646Y341903D01*
D02*
G37*
G36*
X149646D02*
X144706D01*
X145676Y344903D01*
X148676D01*
X149646Y341903D01*
D02*
G37*
G36*
X141645D02*
X136706D01*
X137676Y344903D01*
X140676D01*
X141645Y341903D01*
D02*
G37*
G36*
X133645D02*
X128707D01*
X129676Y344903D01*
X132676D01*
X133645Y341903D01*
D02*
G37*
G36*
X181646D02*
X177565Y341873D01*
X178676Y344514D01*
X181676D01*
X181646Y341903D01*
D02*
G37*
G36*
X173645D02*
X169176Y341873D01*
X170676Y344903D01*
X173676D01*
X173645Y341903D01*
D02*
G37*
G36*
X115546Y338950D02*
X116241Y336400D01*
X111705Y336756D01*
X112546Y339216D01*
X115546Y338950D01*
D02*
G37*
G36*
X78671Y328755D02*
X75135Y325219D01*
X69517Y328755D01*
X75135Y334373D01*
X78671Y328755D01*
D02*
G37*
G36*
X125646Y322999D02*
Y319999D01*
X122646Y318965D01*
Y323904D01*
X125646Y322999D01*
D02*
G37*
G36*
X161003Y308154D02*
X158679Y306926D01*
X156558Y309047D01*
X157786Y311371D01*
X161003Y308154D01*
D02*
G37*
G36*
X125646Y306934D02*
Y303934D01*
X122646Y302964D01*
Y307903D01*
X125646Y306934D01*
D02*
G37*
G36*
X109458Y371071D02*
Y339638D01*
X109007Y338317D01*
X108493Y337804D01*
X107542Y335507D01*
Y333021D01*
X108493Y330724D01*
X109743Y329474D01*
X109072Y327104D01*
X108965Y326934D01*
X107676D01*
Y315934D01*
X108136D01*
Y314704D01*
X116676D01*
Y312164D01*
X108136D01*
Y310934D01*
X107676D01*
Y299934D01*
Y294139D01*
X107315Y294022D01*
X99584D01*
Y367316D01*
X103822Y371554D01*
X103893D01*
X106360Y372215D01*
X106918Y372537D01*
X109458Y371071D01*
D02*
G37*
G36*
X159985Y288809D02*
X157473Y289584D01*
Y292584D01*
X159985Y293359D01*
Y288809D01*
D02*
G37*
G36*
X110707Y286964D02*
X107706Y287934D01*
Y290934D01*
X110707Y291903D01*
Y286964D01*
D02*
G37*
G36*
X78671Y291514D02*
X75135Y285895D01*
X69517Y291514D01*
X75135Y295049D01*
X78671Y291514D01*
D02*
G37*
G36*
X110707Y278965D02*
X107706Y279934D01*
Y282934D01*
X110707Y283904D01*
Y278965D01*
D02*
G37*
G36*
Y270965D02*
X108454Y271292D01*
Y274292D01*
X110707Y275044D01*
Y270965D01*
D02*
G37*
G36*
X210646Y265934D02*
Y262934D01*
X207645Y262964D01*
Y267434D01*
X210646Y265934D01*
D02*
G37*
G36*
X157646Y256903D02*
X152706D01*
X153676Y259904D01*
X156676D01*
X157646Y256903D01*
D02*
G37*
G36*
X97565Y248223D02*
X92427D01*
X93496Y251224D01*
X96496D01*
X97565Y248223D01*
D02*
G37*
G36*
X192645Y252434D02*
Y249434D01*
X189615Y247934D01*
Y253934D01*
X192645Y252434D01*
D02*
G37*
G36*
X180859Y241964D02*
X177859D01*
X176707Y244965D01*
X181646D01*
X180859Y241964D01*
D02*
G37*
G36*
X172178D02*
X169178D01*
X168706Y244965D01*
X173645D01*
X172178Y241964D01*
D02*
G37*
G36*
Y237685D02*
X172784Y235117D01*
X168288Y235814D01*
X169178Y238214D01*
X172178Y237685D01*
D02*
G37*
G36*
X131848Y227724D02*
X125909D01*
X126378Y232724D01*
X131378D01*
X131848Y227724D01*
D02*
G37*
G36*
X145040Y226059D02*
X139871Y226089D01*
X137540Y231089D01*
X142540D01*
X145040Y226059D01*
D02*
G37*
G36*
X211234Y227401D02*
X210006Y225077D01*
X206789Y228294D01*
X209113Y229522D01*
X211234Y227401D01*
D02*
G37*
G36*
X136848Y226137D02*
Y226118D01*
X139871Y226089D01*
Y220951D01*
X136608Y221072D01*
X131848Y219785D01*
Y227724D01*
X136848Y226137D01*
D02*
G37*
G36*
X153209Y220951D02*
X153396Y220551D01*
X155540D01*
X156010Y215551D01*
X150070D01*
X150177Y216682D01*
X148040Y220981D01*
X153209Y220951D01*
D02*
G37*
G36*
X142903Y216682D02*
X143010Y215551D01*
X137071D01*
X137540Y220551D01*
X139684D01*
X139871Y220951D01*
X145040Y220981D01*
X142903Y216682D01*
D02*
G37*
G36*
X137101Y211549D02*
X139913Y208955D01*
X136993Y203955D01*
X131993D01*
X129073Y208955D01*
X131885Y211549D01*
Y214032D01*
X134493Y213955D01*
X137101Y214032D01*
Y211549D01*
D02*
G37*
G36*
X198903Y214867D02*
X195685Y211650D01*
X194457Y213974D01*
X196578Y216096D01*
X198903Y214867D01*
D02*
G37*
G36*
X197027Y195455D02*
X194118Y196428D01*
Y199428D01*
X197027Y200402D01*
Y195455D01*
D02*
G37*
G36*
X288177Y184626D02*
X279692Y180353D01*
X275449Y184596D01*
X279806Y189667D01*
X288177Y184626D01*
D02*
G37*
G36*
X196719Y177031D02*
X194414Y177720D01*
Y180720D01*
X197025Y181398D01*
X196719Y177031D01*
D02*
G37*
G36*
X274166Y176276D02*
X260350D01*
X249769Y167017D01*
X249563Y166976D01*
X249174Y166717D01*
D01*
X248845Y166497D01*
X243407D01*
X242689Y166976D01*
X242483Y167017D01*
X231902Y176276D01*
X211672D01*
X210727Y177428D01*
Y177658D01*
X202357D01*
Y180198D01*
X210727D01*
Y180428D01*
X211905Y181864D01*
X274166D01*
Y176276D01*
D02*
G37*
G36*
X180116Y165674D02*
X174977D01*
X175046Y169926D01*
X180046D01*
X180116Y165674D01*
D02*
G37*
G36*
X266761Y164213D02*
X264448Y163198D01*
X262838Y165830D01*
X264275Y168024D01*
X266761Y164213D01*
D02*
G37*
G36*
X235295Y169243D02*
X234751Y166583D01*
X234618Y166460D01*
X233654Y165816D01*
X232927Y164728D01*
X232775Y163964D01*
X238626D01*
Y162283D01*
X238552Y162268D01*
X236026D01*
X234563Y161977D01*
X233735Y161424D01*
X232775D01*
X232927Y160660D01*
X232962Y160608D01*
X232494Y159907D01*
X232203Y158444D01*
Y157317D01*
X228389D01*
X223058Y158362D01*
X222917Y158456D01*
X220576Y158922D01*
X217735D01*
X216591Y161326D01*
X217324Y163095D01*
Y165581D01*
X216373Y167878D01*
X214614Y169636D01*
X213083Y170271D01*
X213588Y172811D01*
X213868D01*
X215911Y173217D01*
X230753D01*
X235295Y169243D01*
D02*
G37*
G36*
X214536Y155773D02*
X206597D01*
X208320Y160774D01*
X213320D01*
X214536Y155773D01*
D02*
G37*
G36*
X228092Y154258D02*
X232833D01*
X232775Y153964D01*
X233735D01*
X234563Y153411D01*
X236026Y153120D01*
X238552D01*
X238626Y153105D01*
Y152283D01*
X236776D01*
X236702Y152268D01*
X236026D01*
X234563Y151977D01*
X233735Y151424D01*
X232775D01*
X232817Y151210D01*
X228092D01*
X220726Y149860D01*
Y155702D01*
X228092Y154258D01*
D02*
G37*
G36*
X271526Y146812D02*
X261613Y150942D01*
X259414Y151105D01*
X259477Y151424D01*
X258517D01*
X257689Y151977D01*
X256226Y152268D01*
X255550D01*
X255476Y152283D01*
X253942D01*
X253626Y152346D01*
Y153105D01*
X253700Y153120D01*
X256226D01*
X257689Y153411D01*
X258517Y153964D01*
X259477D01*
X259429Y154204D01*
X261613Y154366D01*
X271526Y158496D01*
Y146812D01*
D02*
G37*
G36*
X259081Y146210D02*
X256960Y144089D01*
X252717Y146241D01*
X256904Y148725D01*
X259081Y146210D01*
D02*
G37*
G36*
X239535Y146241D02*
X235292Y144089D01*
X233171Y146210D01*
X235348Y148725D01*
X239535Y146241D01*
D02*
G37*
G36*
X217535Y141192D02*
Y138192D01*
X214536Y136834D01*
X214505Y142692D01*
X217535Y141192D01*
D02*
G37*
G36*
X206597Y136834D02*
X203596Y138304D01*
Y141304D01*
X206597Y142774D01*
Y136834D01*
D02*
G37*
G36*
X202295Y141304D02*
Y138304D01*
X199296Y136834D01*
Y142774D01*
X202295Y141304D01*
D02*
G37*
G36*
X246365Y139702D02*
X247535Y136936D01*
X246556D01*
X246617Y136046D01*
X242915D01*
X242976Y136936D01*
X241996D01*
Y131797D01*
X236996Y131866D01*
Y136866D01*
X241996Y136936D01*
X243167Y139702D01*
X243266Y141134D01*
X246266D01*
X246365Y139702D01*
D02*
G37*
G36*
X288561Y137009D02*
Y134009D01*
X285562Y132558D01*
Y137697D01*
X288561Y137009D01*
D02*
G37*
G36*
X272222Y132558D02*
X269223Y133954D01*
Y136954D01*
X272222Y137697D01*
Y132558D01*
D02*
G37*
G36*
X245272Y115824D02*
X247166Y112013D01*
X241996Y112044D01*
X240803Y114605D01*
X239666D01*
X240234Y115824D01*
X239666Y117044D01*
X240803D01*
X241996Y119605D01*
X247166Y119635D01*
X245272Y115824D01*
D02*
G37*
G36*
X244666Y101904D02*
X239666D01*
X241996Y106904D01*
X247166Y106935D01*
X244666Y101904D01*
D02*
G37*
G36*
X327547Y100669D02*
X322940Y101514D01*
X323860Y109514D01*
X328404Y110009D01*
X327547Y100669D01*
D02*
G37*
G36*
X336740Y95507D02*
X328740D01*
X328050Y100117D01*
X337430D01*
X336740Y95507D01*
D02*
G37*
G36*
X247166Y95107D02*
X240966Y95138D01*
X239666Y100138D01*
X244666D01*
X247166Y95107D01*
D02*
G37*
G36*
X227876Y86288D02*
X225724Y82045D01*
X221712Y86458D01*
X225955Y88609D01*
X227876Y86288D01*
D02*
G37*
G36*
X271026Y77199D02*
X268905Y75078D01*
X264662Y77199D01*
X268905Y80138D01*
X271026Y77199D01*
D02*
G37*
G36*
X309498Y63628D02*
X304436D01*
X305254Y66371D01*
X308255D01*
X309498Y63628D01*
D02*
G37*
G36*
X328705Y62804D02*
X323567D01*
X324636Y65803D01*
X327636D01*
X328705Y62804D01*
D02*
G37*
G36*
X284418Y65888D02*
X280176Y61645D01*
X278055Y65888D01*
X280176Y68009D01*
X284418Y65888D01*
D02*
G37*
G36*
X245807Y58644D02*
X242806Y59714D01*
Y62714D01*
X245807Y63783D01*
Y58644D01*
D02*
G37*
G36*
X280206Y43918D02*
X277176Y45418D01*
Y48418D01*
X280206Y49918D01*
Y43918D01*
D02*
G37*
G36*
X262146Y44934D02*
Y41934D01*
X259146Y40865D01*
Y46003D01*
X262146Y44934D01*
D02*
G37*
G36*
X58786Y356812D02*
X56538Y355915D01*
X55312Y358931D01*
X56838Y360924D01*
X58786Y356812D01*
D02*
G37*
G36*
X49166Y344163D02*
X43166D01*
X44666Y347193D01*
X47666D01*
X49166Y344163D01*
D02*
G37*
G36*
X274345Y352966D02*
X268407Y345895D01*
X264871Y352966D01*
X268407Y356501D01*
X274345Y352966D01*
D02*
G37*
G36*
X286876Y340027D02*
X285087D01*
X284545Y338866D01*
X279376Y338835D01*
X281573Y343255D01*
X281406Y345027D01*
X287346D01*
X286876Y340027D01*
D02*
G37*
G36*
X274179Y343255D02*
X276376Y338835D01*
X271206Y338866D01*
X270665Y340027D01*
X268876D01*
X268407Y345027D01*
X274345D01*
X274179Y343255D01*
D02*
G37*
G36*
X271206Y334226D02*
X271140Y334292D01*
X269372Y336060D01*
X271206Y338027D01*
Y334226D01*
D02*
G37*
G36*
X298140Y332968D02*
X295640D01*
X295119Y335468D01*
X299390D01*
X298140Y332968D01*
D02*
G37*
G36*
X281476Y332146D02*
X278976D01*
X279007Y333727D01*
X281807Y333757D01*
X281476Y332146D01*
D02*
G37*
G36*
X262443Y332835D02*
X260676Y331067D01*
X257140Y332865D01*
X260645Y336370D01*
X262443Y332835D01*
D02*
G37*
G36*
X404344Y330363D02*
X401344D01*
X399844Y333393D01*
X405844D01*
X404344Y330363D01*
D02*
G37*
G36*
X227800Y324485D02*
X225811Y322232D01*
X223478Y323401D01*
X226513Y326791D01*
X227800Y324485D01*
D02*
G37*
G36*
X283976Y323264D02*
Y320764D01*
X281445Y319514D01*
Y324514D01*
X283976Y323264D01*
D02*
G37*
G36*
X382874Y318862D02*
X379874Y319646D01*
Y322646D01*
X382874Y324146D01*
Y318862D01*
D02*
G37*
G36*
X368535Y322646D02*
Y319646D01*
X365536Y318377D01*
Y323915D01*
X368535Y322646D01*
D02*
G37*
G36*
X405844Y314271D02*
X399844D01*
X401344Y317302D01*
X404344D01*
X405844Y314271D01*
D02*
G37*
G36*
X360396Y310576D02*
X357397Y311318D01*
Y314319D01*
X360427Y315819D01*
X360396Y310576D01*
D02*
G37*
G36*
X351436Y314319D02*
Y311318D01*
X348436Y309818D01*
Y314860D01*
X351436Y314319D01*
D02*
G37*
G36*
X337648Y309752D02*
X335097Y307600D01*
X332975Y309722D01*
X335127Y312272D01*
X337648Y309752D01*
D02*
G37*
G36*
X325355Y309946D02*
Y306946D01*
X322355Y305676D01*
Y311215D01*
X325355Y309946D01*
D02*
G37*
G36*
X317216Y305676D02*
X314216Y306946D01*
Y309946D01*
X317216Y311215D01*
Y305676D01*
D02*
G37*
G36*
X224696Y307269D02*
X222575Y305148D01*
X220250Y306376D01*
X223468Y309594D01*
X224696Y307269D01*
D02*
G37*
G36*
X407736Y300863D02*
X404736D01*
X403236Y303893D01*
X409236D01*
X407736Y300863D01*
D02*
G37*
G36*
X324477Y297876D02*
X322355Y295755D01*
X318113Y297876D01*
X322355Y302119D01*
X324477Y297876D01*
D02*
G37*
G36*
X210646Y299014D02*
Y296014D01*
X207645Y294965D01*
Y299904D01*
X210646Y299014D01*
D02*
G37*
G36*
X409006Y293400D02*
X403466D01*
X404736Y296399D01*
X407736D01*
X409006Y293400D01*
D02*
G37*
G36*
X333727Y287896D02*
X330727Y289166D01*
Y292166D01*
X333727Y293435D01*
Y287896D01*
D02*
G37*
G36*
X210646Y290934D02*
Y287934D01*
X207645Y286964D01*
Y291903D01*
X210646Y290934D01*
D02*
G37*
G36*
X271506Y316514D02*
X274485Y313764D01*
X287256D01*
Y311264D01*
X262506D01*
X261506Y309514D01*
Y294764D01*
X266506Y289264D01*
Y285764D01*
X264006D01*
Y289264D01*
X259006Y294764D01*
Y309514D01*
Y311514D01*
X260506Y313764D01*
X266027D01*
X269006Y316514D01*
Y320264D01*
X271506D01*
Y316514D01*
D02*
G37*
G36*
X283256Y308784D02*
X289756D01*
Y307103D01*
X288000Y306753D01*
X287506Y306423D01*
Y306264D01*
X287268D01*
X287238Y306244D01*
X283256D01*
Y303724D01*
X284256D01*
Y291017D01*
X283009D01*
X281506Y289514D01*
X271506D01*
Y287514D01*
Y287014D01*
Y285264D01*
X269006D01*
Y289514D01*
X269006D01*
X267140Y291380D01*
X266324Y291878D01*
X263130Y295392D01*
Y309083D01*
X263448Y309640D01*
X263756D01*
Y309764D01*
X283256D01*
Y308784D01*
D02*
G37*
G36*
X341866Y284366D02*
Y281366D01*
X338866Y280096D01*
Y285636D01*
X341866Y284366D01*
D02*
G37*
G36*
X333727Y280096D02*
X330727Y281366D01*
Y284366D01*
X333727Y285636D01*
Y280096D01*
D02*
G37*
G36*
X259067Y280014D02*
X256036Y281514D01*
Y284514D01*
X259067Y286014D01*
Y280014D01*
D02*
G37*
G36*
X210646Y282934D02*
Y279934D01*
X207645Y278965D01*
Y283904D01*
X210646Y282934D01*
D02*
G37*
G36*
X354189Y280415D02*
X349977Y276203D01*
X347825Y280445D01*
X349947Y282567D01*
X354189Y280415D01*
D02*
G37*
G36*
X220947Y278840D02*
X217730Y275623D01*
X216502Y277947D01*
X218623Y280068D01*
X220947Y278840D01*
D02*
G37*
G36*
X354216Y272306D02*
X351216D01*
X349947Y275306D01*
X355485D01*
X354216Y272306D01*
D02*
G37*
G36*
X240444Y269565D02*
X239216Y267241D01*
X235998Y270458D01*
X238323Y271686D01*
X240444Y269565D01*
D02*
G37*
G36*
X284545Y263174D02*
X281376Y263143D01*
X282876Y266173D01*
X285876D01*
X284545Y263174D01*
D02*
G37*
G36*
X274376Y263143D02*
X271206Y263174D01*
X269876Y266173D01*
X272876D01*
X274376Y263143D01*
D02*
G37*
G36*
X355485Y262666D02*
X349947D01*
X351216Y265665D01*
X354216D01*
X355485Y262666D01*
D02*
G37*
G36*
X293576Y249033D02*
X293513D01*
X293576Y248906D01*
X287576D01*
X287639Y249033D01*
X287576D01*
X289076Y252064D01*
X292076D01*
X293576Y249033D01*
D02*
G37*
G36*
X273435D02*
X273372D01*
X273435Y248906D01*
X267435D01*
X267498Y249033D01*
X267435D01*
X268935Y252064D01*
X271935D01*
X273435Y249033D01*
D02*
G37*
G36*
X265682Y240482D02*
X265555Y240545D01*
Y240482D01*
X262525Y241982D01*
Y244982D01*
X265555Y246482D01*
Y246419D01*
X265682Y246482D01*
Y240482D01*
D02*
G37*
G36*
X303755Y245478D02*
X300755Y245448D01*
Y248448D01*
X303785Y249948D01*
X303755Y245478D01*
D02*
G37*
G36*
X297673Y248448D02*
Y245448D01*
X294642Y243948D01*
X294673Y248937D01*
X297673Y248448D01*
D02*
G37*
G36*
X258046Y241982D02*
X255015Y240482D01*
X255046Y243652D01*
X258046Y244982D01*
Y241982D01*
D02*
G37*
G36*
X257402Y232358D02*
X258442Y232574D01*
X258046Y230693D01*
Y229040D01*
X257726Y229175D01*
X257504Y228122D01*
X255152Y229040D01*
X255420Y230154D01*
X255046Y230312D01*
X255015Y233540D01*
X257402Y232358D01*
D02*
G37*
G36*
X284237Y253255D02*
X283703Y251967D01*
X283703D01*
Y235967D01*
X284163D01*
Y231267D01*
X294642D01*
Y233124D01*
X297243Y231837D01*
Y235967D01*
X297703D01*
Y242050D01*
X298329Y242360D01*
X301184D01*
Y241718D01*
X306324D01*
Y240448D01*
X307594D01*
Y237679D01*
X308894D01*
X307868Y235108D01*
X311464D01*
X312039Y232806D01*
Y222758D01*
X297243D01*
Y228411D01*
X294642Y227124D01*
Y228727D01*
X284163D01*
Y222758D01*
X276621D01*
Y235967D01*
Y251967D01*
X276621D01*
X276463Y252464D01*
X278321Y255004D01*
X282487D01*
X284237Y253255D01*
D02*
G37*
%LPC*%
G36*
X305054Y239178D02*
X301184D01*
Y235108D01*
X304562D01*
X303755Y237679D01*
X305054D01*
Y239178D01*
D02*
G37*
%LPD*%
G36*
X41196Y319254D02*
X36196Y319724D01*
Y324724D01*
X41196Y325193D01*
Y319254D01*
D02*
G37*
G36*
X31656Y303205D02*
X29535Y301084D01*
X27211Y302312D01*
X30428Y305529D01*
X31656Y303205D01*
D02*
G37*
G36*
X41227Y295291D02*
X38196Y296791D01*
Y299791D01*
X41196Y301014D01*
X41227Y295291D01*
D02*
G37*
G36*
X41196Y276075D02*
X36196Y276544D01*
Y281544D01*
X41196Y282013D01*
Y276075D01*
D02*
G37*
G36*
X32699Y203804D02*
X26066Y197171D01*
X23760Y202574D01*
X27296Y206110D01*
X32699Y203804D01*
D02*
G37*
G36*
X35950Y261994D02*
X38713Y261817D01*
Y259310D01*
X40277Y260874D01*
X41424Y259839D01*
X45439Y257803D01*
X41227Y253591D01*
X39191Y257606D01*
X38156Y258753D01*
X38186Y258783D01*
X35360Y258603D01*
X33607Y258133D01*
X33639Y258493D01*
X33481Y258482D01*
Y262152D01*
X33960Y262121D01*
X34009Y262665D01*
X35950Y261994D01*
D02*
G37*
G36*
X78671Y248333D02*
X75135Y242395D01*
X68500Y248333D01*
X75135Y251869D01*
X78671Y248333D01*
D02*
G37*
G36*
X392141Y200163D02*
X389629Y200938D01*
Y203938D01*
X392141Y204713D01*
Y200163D01*
D02*
G37*
G36*
X386055Y203938D02*
Y200938D01*
X383025Y199438D01*
Y205438D01*
X386055Y203938D01*
D02*
G37*
G36*
X48666Y227894D02*
X43666D01*
X41196Y232894D01*
X51136D01*
X48666Y227894D01*
D02*
G37*
G36*
X73339Y203804D02*
X66706Y197171D01*
X64400Y202574D01*
X67936Y206110D01*
X73339Y203804D01*
D02*
G37*
G36*
X179273Y112586D02*
Y107586D01*
X174273Y109916D01*
X174243Y115086D01*
X179273Y112586D01*
D02*
G37*
G36*
X169135Y109916D02*
X164135Y107586D01*
Y112586D01*
X169165Y115086D01*
X169135Y109916D01*
D02*
G37*
G36*
X162894Y112586D02*
Y107586D01*
X157893Y107116D01*
Y113055D01*
X162894Y112586D01*
D02*
G37*
G36*
X142235Y107116D02*
X140113Y104995D01*
X135871Y107116D01*
X140113Y111359D01*
X142235Y107116D01*
D02*
G37*
G36*
X124455D02*
X122333Y104995D01*
X118091Y107116D01*
X122333Y111359D01*
X124455Y107116D01*
D02*
G37*
G36*
X157351Y82871D02*
X154104Y82902D01*
X152851Y85902D01*
X155851D01*
X157351Y82871D01*
D02*
G37*
G36*
X139869Y63965D02*
X134869D01*
X133554Y68965D01*
X141093D01*
X139869Y63965D01*
D02*
G37*
G36*
X170323Y63963D02*
X165323D01*
X164054Y68963D01*
X171593D01*
X170323Y63963D01*
D02*
G37*
D10*
X283173Y135509D02*
X296360D01*
X299027Y138176D02*
X299974D01*
X296360Y135509D02*
X299027Y138176D01*
X145573Y77932D02*
Y83877D01*
X118364Y110086D02*
X119364D01*
X145573Y83877D01*
X362966Y321146D02*
X385158D01*
X387844Y323832D01*
X406236Y290830D02*
Y305690D01*
X402844Y309082D02*
X406236Y305690D01*
X383440Y290730D02*
X398336D01*
X362439Y312819D02*
X362966Y313346D01*
X352516Y277876D02*
X352716D01*
X360516Y277876D02*
X372872D01*
X352716Y260096D02*
Y277876D01*
X360545Y260067D02*
X372847D01*
X333821Y308446D02*
X337666Y312291D01*
X337866D01*
X345666D02*
X346194Y312819D01*
X362439D01*
X319786Y300446D02*
X329566Y290666D01*
X319786Y300446D02*
Y300646D01*
X316854Y297514D02*
X319786Y300446D01*
X347526Y282866D02*
X352516Y277876D01*
X336296Y282866D02*
X347526D01*
X315988D02*
X336296D01*
X329566Y290666D02*
X336296D01*
X289756Y292514D02*
X306339D01*
X315988Y282866D01*
X289756Y297514D02*
X316854D01*
X303155Y302514D02*
X309087Y308446D01*
X289756Y302514D02*
X303155D01*
X319786Y308446D02*
X333821D01*
X309087D02*
X319786D01*
X402844Y309082D02*
Y338582D01*
X212598Y230886D02*
Y262636D01*
X206756Y225044D02*
X212598Y230886D01*
X179359Y231194D02*
X198935Y211618D01*
X179359Y231194D02*
Y250751D01*
X251772Y283014D02*
X260256D01*
X235966Y267208D02*
X251772Y283014D01*
X202676Y264434D02*
X210800D01*
X201676Y265434D02*
X202676Y264434D01*
X210800D02*
X212598Y262636D01*
X201676Y265434D02*
X205176D01*
X198212Y243240D02*
Y246722D01*
Y243240D02*
X198882Y242570D01*
X194000Y250934D02*
X198212Y246722D01*
X215136Y281434D02*
X220980Y275590D01*
X201676Y281434D02*
X215136D01*
X201756Y297514D02*
X250756D01*
X241554Y323850D02*
X242224Y323180D01*
X244187D01*
X245353Y322014D01*
X260256D01*
X306197Y228727D02*
Y240448D01*
X320776Y435206D02*
X352044D01*
X288652Y403082D02*
X320776Y435206D01*
X282792Y135128D02*
X283173Y135509D01*
X274666Y135454D02*
X274992Y135128D01*
X267716Y135454D02*
X274666D01*
X252476Y232882D02*
X253576Y231782D01*
X253776D01*
X255018Y230540D02*
X259574D01*
X260244Y229870D01*
X252476Y232882D02*
Y233082D01*
X253776Y231782D02*
X255018Y230540D01*
X290576Y244094D02*
Y244448D01*
X293076Y246948D01*
X305224D01*
X306324Y248048D01*
Y248248D01*
X223185Y83718D02*
X228135Y88668D01*
X270002Y43434D02*
X273486Y46918D01*
X256376Y43434D02*
X270002D01*
X248576Y61214D02*
X248576Y61214D01*
X239776Y61214D02*
X248576D01*
X325882Y51980D02*
X326136Y52234D01*
Y60034D02*
Y69342D01*
X306810Y88668D02*
X326136Y69342D01*
X289458Y83668D02*
X306754Y66371D01*
Y62158D02*
Y66371D01*
X307005Y60858D02*
Y61908D01*
X306754Y62158D02*
X307005Y61908D01*
X265435Y83668D02*
X289458D01*
X252566Y122174D02*
X252820Y121920D01*
X244766Y141134D02*
X247530Y143898D01*
Y147694D01*
X244766Y134366D02*
Y141134D01*
X252566Y134366D02*
X253666Y133266D01*
X227330Y302514D02*
X250756D01*
X220218Y309626D02*
X227330Y302514D01*
X223520Y326644D02*
X237650Y312514D01*
X223266Y326644D02*
X223520D01*
X237650Y312514D02*
X250756D01*
X145573Y77932D02*
X147573Y75932D01*
X137144Y110086D02*
X154351Y92879D01*
Y82654D02*
Y92879D01*
Y82654D02*
X157573Y79432D01*
Y75932D02*
Y79432D01*
X136144Y110086D02*
X137144D01*
X94996Y248054D02*
Y259334D01*
X108454Y272792D01*
X116034D01*
X380910Y202438D02*
X394462D01*
X380086Y203262D02*
X380910Y202438D01*
X311658Y332994D02*
Y333248D01*
X261823Y162694D02*
X266515Y167386D01*
X267462D01*
X253626Y162694D02*
X261823D01*
X182626Y366252D02*
Y412496D01*
X253626Y152694D02*
X261072D01*
X261112Y152654D01*
X229576Y152694D02*
X238626D01*
X249580Y157694D02*
X253626D01*
X246126Y161148D02*
X249580Y157694D01*
X238626D02*
X242672D01*
X246126Y161148D01*
X202066Y179220D02*
X202357Y178928D01*
X194414Y179220D02*
X202066D01*
X189711Y183923D02*
X194414Y179220D01*
X179176Y250934D02*
X179359Y250751D01*
X306070Y228600D02*
X306197Y228727D01*
X290576Y230124D02*
X303599D01*
X305123Y228600D01*
X306070D01*
X270435Y258393D02*
Y259663D01*
Y245035D02*
Y258393D01*
X268882Y243482D02*
X269494Y244094D01*
X252476Y243482D02*
X268882D01*
X290576Y230124D02*
X290934Y230482D01*
X187176Y250934D02*
X194000D01*
X170678Y250436D02*
X171176Y250934D01*
X170678Y233670D02*
Y250436D01*
X170180Y233172D02*
X170678Y233670D01*
X152908Y263975D02*
X155176Y261707D01*
X152908Y263975D02*
Y264922D01*
X155176Y250934D02*
Y261707D01*
X147176Y335934D02*
Y356980D01*
X168656Y378460D01*
X153416Y371094D02*
Y426974D01*
X139176Y335934D02*
Y356854D01*
X153416Y371094D01*
X131176Y335934D02*
Y359014D01*
X145796Y373634D01*
Y396494D01*
X34449Y298291D02*
X45919D01*
X27178Y305562D02*
X34449Y298291D01*
X114046Y334518D02*
Y389128D01*
X113792Y334264D02*
X114046Y334518D01*
X228774Y139692D02*
X236776Y147694D01*
X210678Y139692D02*
X228774D01*
X236776Y147694D02*
X238626D01*
X195326Y139804D02*
X210566D01*
X255476Y147694D02*
Y147694D01*
X247530D02*
X252476D01*
X25654Y432666D02*
X43310D01*
X49002Y426974D01*
X51816D01*
X189711Y193521D02*
X194118Y197928D01*
X189711Y183923D02*
Y193521D01*
X194118Y197928D02*
X202357D01*
X244579Y336931D02*
X244706Y336804D01*
X244435Y78668D02*
X250935D01*
X254935Y82668D01*
X136144Y123086D02*
X136271Y123213D01*
X195326Y152804D02*
X195580Y153058D01*
X77216Y381254D02*
X89154Y369316D01*
Y285496D02*
Y369316D01*
X79756Y399034D02*
X104140D01*
X114046Y389128D01*
X89154Y285496D02*
X93216Y281434D01*
X94996Y291191D02*
Y369217D01*
X100626Y374847D01*
X96753Y289434D02*
X116676D01*
X94996Y291191D02*
X96753Y289434D01*
X100626Y374847D02*
Y379264D01*
X180176Y344514D02*
X187706Y352044D01*
X213480D01*
X228361Y352163D02*
Y368689D01*
X228242Y368808D02*
X228361Y368689D01*
Y352163D02*
X228480Y352044D01*
X227236Y292514D02*
X250756D01*
X224156Y289434D02*
X227236Y292514D01*
X153797Y123213D02*
X153924Y123086D01*
X284376Y259334D02*
X284646D01*
X284376D02*
Y269344D01*
X290576Y244094D02*
Y253404D01*
X284646Y259334D02*
X290576Y253404D01*
X93216Y281434D02*
X116676D01*
X163176Y346802D02*
X182626Y366252D01*
X172176Y336934D02*
Y345404D01*
X197866Y371094D01*
X155176Y335934D02*
Y352026D01*
X163068Y359918D01*
X163176Y335934D02*
Y346802D01*
X171176Y335934D02*
X172176Y336934D01*
X58363Y359861D02*
X59910D01*
X46166Y347664D02*
X58363Y359861D01*
X46166Y341224D02*
Y347664D01*
X45919Y298291D02*
X46166Y298044D01*
X116676Y297434D02*
X117676Y296434D01*
X123682D02*
X129032Y291084D01*
X162306D01*
X117676Y296434D02*
X123682D01*
X245254Y149970D02*
X247530Y147694D01*
X242673Y152694D02*
X245254Y150112D01*
Y149970D02*
Y150112D01*
X238626Y152694D02*
X242673D01*
X255476Y147694D02*
X267716Y135454D01*
X253626Y147694D02*
X255476D01*
X116741Y321499D02*
X128404D01*
X130879Y319024D02*
X131826D01*
X128404Y321499D02*
X130879Y319024D01*
X116676Y321434D02*
X116741Y321499D01*
X116676Y305434D02*
X155066D01*
X161036Y311404D01*
X265435Y88668D02*
X306810D01*
X228242Y368808D02*
X228742Y369308D01*
X227980Y351544D02*
X228480Y352044D01*
X180176Y336934D02*
Y344514D01*
X179176Y335934D02*
X180176Y336934D01*
X51816Y426974D02*
X79756Y399034D01*
X100626Y379264D02*
X102616Y381254D01*
X128016Y414274D02*
Y426974D01*
Y414274D02*
X145796Y396494D01*
X38713Y260317D02*
X44166Y254864D01*
X31783Y260317D02*
X38713D01*
X116034Y272792D02*
X116676Y273434D01*
X271376Y269344D02*
X275336Y273304D01*
X271376Y259334D02*
Y269344D01*
X270435Y258393D02*
X271376Y259334D01*
X280256Y273464D02*
X284376Y269344D01*
X280256Y273464D02*
Y283014D01*
X275256Y273384D02*
X275336Y273304D01*
X275256Y273384D02*
Y283014D01*
X201676Y289434D02*
X224156D01*
X195326Y139804D02*
X195326Y139804D01*
X228135Y88668D02*
X244435D01*
X232918Y80518D02*
X236068Y83668D01*
X244435D01*
X232918Y68072D02*
Y80518D01*
Y68072D02*
X239776Y61214D01*
X273486Y46918D02*
X284145D01*
X267435Y78668D02*
X274540Y71563D01*
Y71523D02*
Y71563D01*
Y71523D02*
X284145Y61918D01*
X265435Y78668D02*
X267435D01*
D11*
X296890Y337440D02*
X297688Y338238D01*
X296890Y331688D02*
Y337440D01*
X287216Y322014D02*
X296890Y331688D01*
X280226Y334946D02*
X281576Y336296D01*
X281776D01*
X280226Y332146D02*
Y334946D01*
X275256Y327176D02*
X280226Y332146D01*
X270256Y335176D02*
X271376Y336296D01*
X270256Y322014D02*
Y335176D01*
X275256Y322014D02*
Y327176D01*
X294249Y307514D02*
X298958Y312223D01*
X289756Y307514D02*
X294249D01*
X298958Y320294D02*
X311658Y332994D01*
X298958Y312223D02*
Y320294D01*
X280256Y322014D02*
X287216D01*
X270256D02*
X270256D01*
X265256D02*
Y328254D01*
X257706Y335804D02*
X265256Y328254D01*
D17*
X269621Y243967D02*
D03*
Y229997D02*
D03*
X290703Y243967D02*
D03*
Y229997D02*
D03*
D18*
X336296Y290666D02*
D03*
Y282866D02*
D03*
X319786Y308446D02*
D03*
Y300646D02*
D03*
X94996Y245454D02*
D03*
Y237654D02*
D03*
X297688Y346038D02*
D03*
Y338238D02*
D03*
X326136Y52234D02*
D03*
Y60034D02*
D03*
X307005Y53058D02*
D03*
Y60858D02*
D03*
X223185Y75918D02*
D03*
Y83718D02*
D03*
X362966Y321146D02*
D03*
Y313346D02*
D03*
X306324Y248248D02*
D03*
Y240448D02*
D03*
X252476Y240882D02*
D03*
Y233082D02*
D03*
X282956Y108114D02*
D03*
Y115914D02*
D03*
X295656Y108114D02*
D03*
Y115914D02*
D03*
X171704Y112686D02*
D03*
Y120486D02*
D03*
X177546Y162904D02*
D03*
Y155104D02*
D03*
D19*
X337866Y312291D02*
D03*
X345666D02*
D03*
X273976Y260604D02*
D03*
X281776D02*
D03*
X248576Y43434D02*
D03*
X256376D02*
D03*
X256376Y61214D02*
D03*
X248576D02*
D03*
X274992Y135128D02*
D03*
X282792D02*
D03*
X352716Y260096D02*
D03*
X360516D02*
D03*
X352716Y277876D02*
D03*
X360516D02*
D03*
X406236Y290830D02*
D03*
X398436D02*
D03*
X281776Y336296D02*
D03*
X273976D02*
D03*
X142640Y223520D02*
D03*
X150440D02*
D03*
X244766Y122174D02*
D03*
X252566D02*
D03*
X244766Y109474D02*
D03*
X252566D02*
D03*
X244766Y134366D02*
D03*
X252566D02*
D03*
D20*
X201676Y321434D02*
D03*
Y313434D02*
D03*
Y305434D02*
D03*
Y297434D02*
D03*
Y289434D02*
D03*
Y281434D02*
D03*
Y273434D02*
D03*
Y265434D02*
D03*
X116676Y265434D02*
D03*
Y273434D02*
D03*
Y281434D02*
D03*
Y289434D02*
D03*
Y297434D02*
D03*
Y305434D02*
D03*
Y313434D02*
D03*
Y321434D02*
D03*
D21*
X187176Y250934D02*
D03*
X179176D02*
D03*
X171176D02*
D03*
X163176D02*
D03*
X155176D02*
D03*
X147176D02*
D03*
X139176D02*
D03*
X131176D02*
D03*
X187176Y335934D02*
D03*
X179176D02*
D03*
X171176D02*
D03*
X163176D02*
D03*
X155176D02*
D03*
X147176D02*
D03*
X139176D02*
D03*
X131176D02*
D03*
D22*
X402844Y309082D02*
D03*
Y338582D02*
D03*
D23*
X387844Y323832D02*
D03*
D24*
X380086Y203262D02*
D03*
X361086D02*
D03*
X370586Y179262D02*
D03*
D25*
X177546Y172047D02*
D03*
D26*
X25654Y432666D02*
D03*
Y445666D02*
D03*
X195326Y139804D02*
D03*
Y152804D02*
D03*
X352044Y448206D02*
D03*
Y435206D02*
D03*
X210566Y152804D02*
D03*
Y139804D02*
D03*
X118364Y123086D02*
D03*
Y110086D02*
D03*
X136144Y123086D02*
D03*
Y110086D02*
D03*
X153924Y123086D02*
D03*
Y110086D02*
D03*
D27*
X228242Y368808D02*
D03*
X215242D02*
D03*
X271376Y348996D02*
D03*
X284376D02*
D03*
X115946Y211328D02*
D03*
X128946D02*
D03*
X115878Y223754D02*
D03*
X128878D02*
D03*
X153040Y211582D02*
D03*
X140040D02*
D03*
X257706Y336804D02*
D03*
X244706D02*
D03*
D28*
X213480Y352044D02*
D03*
X228480D02*
D03*
D29*
X280256Y283014D02*
D03*
X275256D02*
D03*
X270256D02*
D03*
X265256D02*
D03*
X260256D02*
D03*
X280256Y322014D02*
D03*
X275256D02*
D03*
X270256D02*
D03*
X265256D02*
D03*
X260256D02*
D03*
D30*
X289756Y292514D02*
D03*
Y297514D02*
D03*
Y302514D02*
D03*
Y307514D02*
D03*
Y312514D02*
D03*
X250756Y292514D02*
D03*
Y297514D02*
D03*
Y302514D02*
D03*
Y307514D02*
D03*
Y312514D02*
D03*
D31*
X287190Y187594D02*
D03*
X306070Y178054D02*
D03*
X287190Y168544D02*
D03*
D32*
X70166Y331724D02*
D03*
X46166Y322224D02*
D03*
Y341224D02*
D03*
X70166Y288544D02*
D03*
X46166Y279044D02*
D03*
Y298044D02*
D03*
X70166Y245364D02*
D03*
X46166Y235864D02*
D03*
Y254864D02*
D03*
D33*
X253626Y157694D02*
D03*
X238626D02*
D03*
Y162694D02*
D03*
Y152694D02*
D03*
Y147694D02*
D03*
X253626Y162694D02*
D03*
Y152694D02*
D03*
Y147694D02*
D03*
D34*
X167823Y75932D02*
D03*
X137323Y75934D02*
D03*
D35*
X125054Y75936D02*
D03*
X180092Y75928D02*
D03*
D36*
X147573Y75932D02*
D03*
X157573D02*
D03*
D37*
X244435Y93668D02*
D03*
Y88668D02*
D03*
Y83668D02*
D03*
Y78668D02*
D03*
X265435D02*
D03*
Y83668D02*
D03*
Y88668D02*
D03*
Y93668D02*
D03*
D38*
X254935Y86168D02*
D03*
D39*
X284145Y61918D02*
D03*
Y46918D02*
D03*
D40*
X202357Y178928D02*
D03*
Y188428D02*
D03*
Y197928D02*
D03*
X177357Y178928D02*
D03*
Y197928D02*
D03*
D41*
X335661Y367665D02*
D03*
D42*
X372745Y220091D02*
D03*
Y410337D02*
D03*
D43*
X409829Y380619D02*
D03*
Y249809D02*
D03*
D44*
X335661Y244221D02*
D03*
D74*
X272796Y152654D02*
X310388D01*
X358140Y104902D01*
X370586Y177038D02*
X387096Y160528D01*
X370586Y177038D02*
Y179262D01*
D75*
X398336Y290730D02*
X398436Y290830D01*
X383286Y290576D02*
X383440Y290730D01*
X360516Y277876D02*
X360516Y277876D01*
X372847Y260067D02*
X372876Y260038D01*
X360516Y260096D02*
X360545Y260067D01*
X85377Y221775D02*
Y227835D01*
X94996Y237454D02*
Y237654D01*
X85377Y227835D02*
X94996Y237454D01*
X163068Y146812D02*
X163355Y147099D01*
X169741D01*
X177546Y154904D02*
Y155104D01*
X169741Y147099D02*
X177546Y154904D01*
X140749Y260861D02*
X147176Y254434D01*
X113825Y255557D02*
Y265434D01*
X153924Y123086D02*
Y135128D01*
X224282Y122428D02*
X236220Y134366D01*
X244766D01*
X140040Y223520D02*
Y235323D01*
X163176Y244384D02*
Y260988D01*
X157044Y238252D02*
X163176Y244384D01*
X140040Y235323D02*
X142969Y238252D01*
X157044D01*
X257136Y364236D02*
X271376Y349996D01*
Y348996D02*
Y349996D01*
X256794Y364236D02*
X257136D01*
X284555Y361771D02*
X284734Y361950D01*
X284555Y349175D02*
Y361771D01*
X284376Y348996D02*
X284555Y349175D01*
X284376Y336296D02*
Y348996D01*
X271376Y336296D02*
Y348996D01*
X171450Y176022D02*
X173571D01*
X177452Y176690D02*
Y178834D01*
X177357Y178928D02*
X177452Y178834D01*
X174357Y175928D02*
X177357Y178928D01*
X171704Y167894D02*
X173261Y169451D01*
X174950D01*
X173637Y176022D02*
X183642D01*
X173571D02*
X173604Y175989D01*
X173637Y176022D01*
X177546Y169926D02*
X183642Y176022D01*
X177546Y165504D02*
Y169926D01*
X125095Y45593D02*
Y57531D01*
X125222Y57658D01*
X125054Y75936D02*
X125138Y75853D01*
X124968Y45466D02*
X125095Y45593D01*
X125138Y57742D02*
Y75853D01*
Y57742D02*
X125222Y57658D01*
X180092Y58928D02*
Y75928D01*
Y46488D02*
Y58928D01*
X180086Y46482D02*
X180092Y46488D01*
X33666Y322224D02*
X46166D01*
X28448Y328930D02*
X28735Y328643D01*
Y327155D02*
X33666Y322224D01*
X28735Y327155D02*
Y328643D01*
X25654Y445666D02*
X25781Y445793D01*
Y458597D01*
X25908Y458724D01*
X210820Y153058D02*
Y164084D01*
X210566Y152804D02*
X210820Y153058D01*
Y164084D02*
X211074Y164338D01*
X224940Y163472D02*
X237776D01*
X224790Y163322D02*
X224940Y163472D01*
X202504Y188575D02*
X216515D01*
X216662Y188722D01*
X202357Y188428D02*
X202504Y188575D01*
X96926Y216916D02*
X102514Y211328D01*
X115946D01*
X96520Y216916D02*
X96926D01*
X134112Y197612D02*
X134399Y197899D01*
Y198960D01*
X134493Y199054D02*
Y211455D01*
X134399Y198960D02*
X134493Y199054D01*
Y211455D02*
X139913D01*
X129073D02*
X134493D01*
X139176Y250934D02*
Y264144D01*
X139446Y264414D01*
X147176Y250934D02*
Y254434D01*
X103886Y313182D02*
X104138Y313434D01*
X116676D01*
X113538Y255270D02*
X113825Y255557D01*
Y265434D02*
X116676D01*
X187176Y328400D02*
Y335934D01*
X178816Y320040D02*
X187176Y328400D01*
X178816Y276628D02*
Y320040D01*
X201168Y330556D02*
Y330962D01*
X201676Y321434D02*
Y330048D01*
X201168Y330556D02*
X201676Y330048D01*
Y313434D02*
Y321434D01*
X190884Y273434D02*
X201676D01*
X187198Y269748D02*
X190884Y273434D01*
X163176Y260988D02*
X178816Y276628D01*
X153040Y211582D02*
Y223520D01*
X147320Y194818D02*
X153040Y200538D01*
Y211582D01*
X85090Y221488D02*
X85377Y221775D01*
X140040Y211582D02*
Y223520D01*
X128878Y223754D02*
Y245136D01*
X131176Y247434D01*
X128995Y223637D02*
X139923D01*
X106035D02*
X115761D01*
X105918Y223520D02*
X106035Y223637D01*
X115761D02*
X115878Y223754D01*
X77945Y319311D02*
Y325945D01*
Y319311D02*
X78232Y319024D01*
X70166Y331724D02*
X72166D01*
X77945Y325945D01*
X72166Y288544D02*
X77945Y294323D01*
Y301465D01*
X70166Y288544D02*
X72166D01*
X77945Y301465D02*
X78232Y301752D01*
X78453Y251651D02*
Y258539D01*
X78740Y258826D01*
X70166Y245364D02*
X72166D01*
X78453Y251651D01*
X167823Y61691D02*
X168148Y61366D01*
Y60960D02*
Y61366D01*
X167823Y61691D02*
Y75932D01*
X137369Y60751D02*
Y75889D01*
X137323Y75934D02*
X137369Y75889D01*
Y60751D02*
X137414Y60706D01*
X229616Y99314D02*
X240896D01*
X16256Y213614D02*
Y269494D01*
X25806Y279044D02*
X46166D01*
X16256Y269494D02*
X25806Y279044D01*
X16256Y213614D02*
X32766Y197104D01*
X31496Y260604D02*
X31783Y260317D01*
X46166Y224344D02*
Y235864D01*
X44166Y254864D02*
X46166D01*
Y224344D02*
X73406Y197104D01*
X131176Y247434D02*
Y250934D01*
X139923Y223637D02*
X140040Y223520D01*
X128878Y223754D02*
X128995Y223637D01*
X128946Y211328D02*
X129073Y211455D01*
X139913D02*
X140040Y211582D01*
X187198Y109982D02*
X188468D01*
X187094Y110086D02*
X187198Y109982D01*
X171704Y110086D02*
X187094D01*
X153924Y110086D02*
X153924Y110086D01*
X171704D01*
X242166Y94996D02*
Y122174D01*
D76*
X287190Y168544D02*
X289110Y166624D01*
X348601D02*
X353173Y162052D01*
X289110Y166624D02*
X348601D01*
X353173Y162052D02*
X353822D01*
D77*
X332018Y178054D02*
X356226Y202262D01*
X360086D01*
X306070Y178054D02*
X332018D01*
X332740Y89662D02*
Y104902D01*
Y89662D02*
X354059Y68343D01*
X360155D01*
X361188Y67310D01*
X332128Y105514D02*
X332740Y104902D01*
X295656Y105514D02*
X332128D01*
X282956D02*
X295656D01*
X266635Y96330D02*
X275819Y105514D01*
X281956D01*
D78*
X270002Y179070D02*
X274166D01*
X282690Y187594D02*
X287190D01*
X274166Y179070D02*
X282690Y187594D01*
X210566Y152804D02*
X220576D01*
X202357Y178928D02*
X213868D01*
D79*
X246126Y161148D02*
Y169418D01*
D80*
X288652Y403082D02*
D03*
Y528082D02*
D03*
X238652D02*
D03*
Y403082D02*
D03*
D81*
X51816Y426974D02*
D03*
X77216D02*
D03*
X102616D02*
D03*
X128016D02*
D03*
X153416D02*
D03*
X51816Y452374D02*
D03*
X77216D02*
D03*
X102616D02*
D03*
X128016D02*
D03*
X153416D02*
D03*
X128016Y381254D02*
D03*
X102616D02*
D03*
X77216D02*
D03*
X51816D02*
D03*
X383540Y104902D02*
D03*
X358140D02*
D03*
X332740D02*
D03*
X112776Y153924D02*
D03*
Y179324D02*
D03*
X73406Y120904D02*
D03*
Y146304D02*
D03*
Y171704D02*
D03*
Y197104D02*
D03*
X32766D02*
D03*
Y171704D02*
D03*
Y146304D02*
D03*
Y120904D02*
D03*
X353822Y136652D02*
D03*
Y162052D02*
D03*
X386588Y67310D02*
D03*
X361188D02*
D03*
X387096Y135128D02*
D03*
Y160528D02*
D03*
D82*
X392430Y517398D02*
D03*
X38100D02*
D03*
Y38100D02*
D03*
D83*
X109073Y72932D02*
D03*
X196073D02*
D03*
Y34932D02*
D03*
X109073D02*
D03*
D84*
X299974Y138176D02*
D03*
X206756Y225044D02*
D03*
X198935Y211618D02*
D03*
X198882Y242570D02*
D03*
X220980Y275590D02*
D03*
X235966Y267208D02*
D03*
X241554Y323850D02*
D03*
X153924Y135128D02*
D03*
X163068Y146812D02*
D03*
X220218Y309626D02*
D03*
X223266Y326644D02*
D03*
X260244Y229870D02*
D03*
X394462Y202438D02*
D03*
X336042Y220218D02*
D03*
X409702Y366776D02*
D03*
Y383032D02*
D03*
Y398272D02*
D03*
X395986Y220218D02*
D03*
X382016Y219964D02*
D03*
X366776D02*
D03*
X351028D02*
D03*
X335534Y324612D02*
D03*
Y337312D02*
D03*
Y351282D02*
D03*
Y366776D02*
D03*
Y383032D02*
D03*
Y398272D02*
D03*
X347980Y410464D02*
D03*
X361696D02*
D03*
X377698D02*
D03*
X393954Y410210D02*
D03*
X335280D02*
D03*
X409448D02*
D03*
X409702Y351282D02*
D03*
Y279654D02*
D03*
Y235204D02*
D03*
Y250698D02*
D03*
Y265938D02*
D03*
X409448Y220472D02*
D03*
X335788Y237490D02*
D03*
X335534Y255778D02*
D03*
X372872Y277876D02*
D03*
X372876Y260038D02*
D03*
X383286Y290576D02*
D03*
X311658Y333248D02*
D03*
X284734Y361950D02*
D03*
X267462Y167386D02*
D03*
X171450Y176022D02*
D03*
X182626Y412496D02*
D03*
X306070Y228600D02*
D03*
X183642Y168148D02*
D03*
X171704Y167894D02*
D03*
X183642Y176022D02*
D03*
X170180Y233172D02*
D03*
X125222Y57658D02*
D03*
X180092Y58928D02*
D03*
X180086Y46482D02*
D03*
X124968Y45466D02*
D03*
X152908Y264922D02*
D03*
X168656Y378460D02*
D03*
X28448Y328930D02*
D03*
X27178Y305562D02*
D03*
X113792Y334264D02*
D03*
X278892Y295148D02*
D03*
Y305308D02*
D03*
X268732D02*
D03*
X224282Y122428D02*
D03*
X25908Y458724D02*
D03*
X211074Y164338D02*
D03*
X224790Y163322D02*
D03*
X216662Y188722D02*
D03*
X96520Y216916D02*
D03*
X134112Y197612D02*
D03*
X254935Y86168D02*
D03*
X139446Y264414D02*
D03*
X103886Y313182D02*
D03*
X113538Y255270D02*
D03*
X256794Y364236D02*
D03*
X201168Y330962D02*
D03*
X187198Y269748D02*
D03*
X147320Y194818D02*
D03*
X85090Y221488D02*
D03*
X105918Y223520D02*
D03*
X78232Y319024D02*
D03*
Y301752D02*
D03*
X78740Y258826D02*
D03*
X168148Y60960D02*
D03*
X137414Y60706D02*
D03*
X229616Y99314D02*
D03*
X197866Y371094D02*
D03*
X163068Y359918D02*
D03*
X59910Y359861D02*
D03*
X131826Y319024D02*
D03*
X161036Y311404D02*
D03*
X162306Y291084D02*
D03*
X31496Y260604D02*
D03*
X188468Y109982D02*
D03*
D85*
X392216Y442114D02*
D03*
X417216Y192114D02*
D03*
Y92114D02*
D03*
X392216Y42114D02*
D03*
X342216D02*
D03*
X317216Y492114D02*
D03*
X292216Y442114D02*
D03*
X317216Y392114D02*
D03*
X267216Y492114D02*
D03*
X217216D02*
D03*
X167216D02*
D03*
X117216D02*
D03*
X92216Y42114D02*
D03*
X67216Y492114D02*
D03*
Y92114D02*
D03*
M02*
